<?xml version="1.0" encoding="UTF-8" standalone="no"?>
<!-- Created with Inkscape (http://www.inkscape.org/) -->

<svg
   width="1080"
   height="1080"
   viewBox="0 0 1080 1080"
   version="1.1"
   id="svg1"
   xml:space="preserve"
   inkscape:version="1.3 (0e150ed6c4, 2023-07-21)"
   sodipodi:docname="discussion-blobs.svg"
   inkscape:export-filename="plain_svg\DiscussionBlobs.svg"
   inkscape:export-xdpi="96"
   inkscape:export-ydpi="96"
   xmlns:inkscape="http://www.inkscape.org/namespaces/inkscape"
   xmlns:sodipodi="http://sodipodi.sourceforge.net/DTD/sodipodi-0.dtd"
   xmlns="http://www.w3.org/2000/svg"
   xmlns:svg="http://www.w3.org/2000/svg"><sodipodi:namedview
     id="namedview1"
     pagecolor="#ffffff"
     bordercolor="#000000"
     borderopacity="0.25"
     inkscape:showpageshadow="2"
     inkscape:pageopacity="0.0"
     inkscape:pagecheckerboard="0"
     inkscape:deskcolor="#d1d1d1"
     inkscape:document-units="px"
     inkscape:zoom="0.76018519"
     inkscape:cx="643.26431"
     inkscape:cy="542.63093"
     inkscape:window-width="1920"
     inkscape:window-height="1017"
     inkscape:window-x="1912"
     inkscape:window-y="-8"
     inkscape:window-maximized="1"
     inkscape:current-layer="layer3" /><defs
     id="defs1"><inkscape:path-effect
       effect="bspline"
       id="path-effect77"
       is_visible="true"
       lpeversion="1.3"
       weight="33.333333"
       steps="2"
       helper_size="0"
       apply_no_weight="true"
       apply_with_weight="true"
       only_selected="false"
       uniform="false" /><inkscape:path-effect
       effect="bspline"
       id="path-effect76"
       is_visible="true"
       lpeversion="1.3"
       weight="33.333333"
       steps="2"
       helper_size="0"
       apply_no_weight="true"
       apply_with_weight="true"
       only_selected="false"
       uniform="false" /><inkscape:path-effect
       effect="bspline"
       id="path-effect75"
       is_visible="true"
       lpeversion="1.3"
       weight="33.333333"
       steps="2"
       helper_size="0"
       apply_no_weight="true"
       apply_with_weight="true"
       only_selected="false"
       uniform="false" /><inkscape:path-effect
       effect="bspline"
       id="path-effect70"
       is_visible="true"
       lpeversion="1.3"
       weight="33.333333"
       steps="2"
       helper_size="0"
       apply_no_weight="true"
       apply_with_weight="true"
       only_selected="false"
       uniform="false" /><inkscape:path-effect
       effect="bspline"
       id="path-effect69"
       is_visible="true"
       lpeversion="1.3"
       weight="33.333333"
       steps="2"
       helper_size="0"
       apply_no_weight="true"
       apply_with_weight="true"
       only_selected="false"
       uniform="false" /><inkscape:path-effect
       effect="bspline"
       id="path-effect67"
       is_visible="true"
       lpeversion="1.3"
       weight="33.333333"
       steps="2"
       helper_size="0"
       apply_no_weight="true"
       apply_with_weight="true"
       only_selected="false"
       uniform="false" /><inkscape:path-effect
       effect="bspline"
       id="path-effect66"
       is_visible="true"
       lpeversion="1.3"
       weight="33.333333"
       steps="2"
       helper_size="0"
       apply_no_weight="true"
       apply_with_weight="true"
       only_selected="false"
       uniform="false" /><inkscape:path-effect
       effect="bspline"
       id="path-effect65"
       is_visible="true"
       lpeversion="1.3"
       weight="33.333333"
       steps="2"
       helper_size="0"
       apply_no_weight="true"
       apply_with_weight="true"
       only_selected="false"
       uniform="false" /><inkscape:path-effect
       effect="bspline"
       id="path-effect64"
       is_visible="true"
       lpeversion="1.3"
       weight="33.333333"
       steps="2"
       helper_size="0"
       apply_no_weight="true"
       apply_with_weight="true"
       only_selected="false"
       uniform="false" /><linearGradient
       id="swatch54"
       inkscape:swatch="solid"><stop
         style="stop-color:#000000;stop-opacity:1;"
         offset="0"
         id="stop54" /></linearGradient><inkscape:path-effect
       effect="powerstroke"
       id="path-effect54"
       is_visible="true"
       lpeversion="1.3"
       scale_width="1"
       interpolator_type="CentripetalCatmullRom"
       interpolator_beta="0.2"
       start_linecap_type="zerowidth"
       end_linecap_type="zerowidth"
       offset_points="1.4049725,5.5352237 | 6.4273585,5.6384092 | 9.8067731,5.7404351 | 19.886332,3.3266214 | 18.940083,5.2518708"
       linejoin_type="round"
       miter_limit="4"
       not_jump="false"
       sort_points="true"
       message="&lt;b&gt;Ctrl + click&lt;/b&gt; on existing node and move it" /><inkscape:path-effect
       effect="bspline"
       id="path-effect53"
       is_visible="true"
       lpeversion="1.3"
       weight="33.333333"
       steps="2"
       helper_size="0"
       apply_no_weight="true"
       apply_with_weight="true"
       only_selected="false"
       uniform="false" /><inkscape:path-effect
       effect="powerstroke"
       id="path-effect52"
       is_visible="true"
       lpeversion="1.3"
       scale_width="1"
       interpolator_type="CentripetalCatmullRom"
       interpolator_beta="0.2"
       start_linecap_type="zerowidth"
       end_linecap_type="zerowidth"
       offset_points="0.083772552,4.1990394 | 1.9275704,6.8802944 | 12.473712,5.1473493 | 24.979613,2.6518785 | 24.526261,4.000121 | 21.404846,3.0712385"
       linejoin_type="round"
       miter_limit="4"
       not_jump="false"
       sort_points="true"
       message="&lt;b&gt;Ctrl + click&lt;/b&gt; on existing node and move it" /><inkscape:path-effect
       effect="bspline"
       id="path-effect51"
       is_visible="true"
       lpeversion="1.3"
       weight="33.333333"
       steps="2"
       helper_size="0"
       apply_no_weight="true"
       apply_with_weight="true"
       only_selected="false"
       uniform="false" /><linearGradient
       id="swatch26"
       inkscape:swatch="solid"><stop
         style="stop-color:#000000;stop-opacity:1;"
         offset="0"
         id="stop26" /></linearGradient><linearGradient
       id="swatch25"
       inkscape:swatch="solid"><stop
         style="stop-color:#000000;stop-opacity:1;"
         offset="0"
         id="stop25" /></linearGradient><linearGradient
       id="swatch9"
       inkscape:swatch="solid"><stop
         style="stop-color:#000000;stop-opacity:1;"
         offset="0"
         id="stop9" /></linearGradient><inkscape:path-effect
       effect="bspline"
       id="path-effect8"
       is_visible="true"
       lpeversion="1.3"
       weight="33.333333"
       steps="2"
       helper_size="0"
       apply_no_weight="true"
       apply_with_weight="true"
       only_selected="false"
       uniform="false" /><inkscape:path-effect
       effect="bspline"
       id="path-effect7"
       is_visible="true"
       lpeversion="1.3"
       weight="33.333333"
       steps="2"
       helper_size="0"
       apply_no_weight="true"
       apply_with_weight="true"
       only_selected="false"
       uniform="false" /><inkscape:path-effect
       effect="bspline"
       id="path-effect6"
       is_visible="true"
       lpeversion="1.3"
       weight="33.333333"
       steps="2"
       helper_size="0"
       apply_no_weight="true"
       apply_with_weight="true"
       only_selected="false"
       uniform="false" /><inkscape:path-effect
       effect="powerstroke"
       id="path-effect3"
       is_visible="true"
       lpeversion="1.3"
       scale_width="1"
       interpolator_type="CentripetalCatmullRom"
       interpolator_beta="0.2"
       start_linecap_type="zerowidth"
       end_linecap_type="zerowidth"
       offset_points="12.656663,5.1712436 | 6.8940866,11.199915 | 18.382744,3.9853061 | 1.1065605,8.211"
       linejoin_type="round"
       miter_limit="4"
       not_jump="false"
       sort_points="true"
       message="&lt;b&gt;Ctrl + click&lt;/b&gt; on existing node and move it" /><inkscape:path-effect
       effect="bspline"
       id="path-effect1"
       is_visible="true"
       lpeversion="1.3"
       weight="33.333333"
       steps="2"
       helper_size="0"
       apply_no_weight="true"
       apply_with_weight="true"
       only_selected="false"
       uniform="false" /></defs><g
     inkscape:groupmode="layer"
     id="layer5"
     inkscape:label="front-blob"><path
       style="opacity:1;fill:#000000;fill-opacity:1;fill-rule:nonzero;stroke:#000000;stroke-width:8;stroke-linecap:round;stroke-dasharray:none;stroke-opacity:1"
       d="m 240.49687,849.73712 c -1.03616,-5.89806 -2.62163,-15.73077 -3.29432,-27.50234 -0.45881,-8.0288 -0.54676,-17.4216 0.0709,-30.01879 0.11731,-2.39258 0.25976,-4.90422 0.43088,-7.52459 0.54739,-8.38171 1.47745,-18.99545 3.04208,-30.95874 1.65404,-12.64698 4.10765,-27.47952 7.72169,-42.65241 6.20498,-26.05041 15.97628,-53.56171 28.90673,-77.83292 11.51984,-21.6234 24.8487,-39.34091 41.22596,-57.60716 15.69643,-17.50688 33.38106,-34.64065 50.54288,-48.26347 8.53569,-6.77551 16.79815,-12.56649 25.51532,-17.72976 8.87525,-5.25689 18.24084,-9.87458 28.79772,-14.17059 10.93865,-4.45136 23.04809,-8.51243 35.35044,-11.96942 10.12736,-2.84581 20.28294,-5.25452 30.04499,-7.16922 2.68435,-0.5265 5.35506,-1.01895 8.00405,-1.47513 24.95962,-4.29828 47.87875,-5.35902 71.27939,-1.71051 23.56803,3.67461 48.09132,12.20402 70.65267,23.70021 22.51961,11.47491 42.81988,25.77116 59.54542,42.15613 16.70702,16.36681 29.96532,34.93696 40.58904,56.14919 10.65006,21.26483 18.60741,45.09597 23.01777,68.71983 2.20275,11.79897 3.51341,23.50522 3.74531,35.49136 0.0727,3.75786 0.0394,7.54526 -0.10599,11.37352 -0.31774,8.36554 -1.16381,16.95977 -2.61327,25.90324 -4.19561,25.88776 -13.44166,54.65959 -27.34763,84.34282 -13.84333,29.54952 -32.19873,59.77279 -49.50602,83.68124 -8.65481,11.95584 -17.00998,22.28045 -25.58717,31.59718 -8.61222,9.3548 -17.45908,17.70487 -27.05455,25.65698 -19.45038,16.11924 -41.77656,30.43511 -68.3164,41.65313 -27.18285,11.4898 -58.633,19.675 -87.81688,24.2978 -11.43704,1.8116 -22.5184,3.0764 -33.13426,3.7787 -16.63376,1.1005 -32.95269,0.8587 -48.03056,-1.1824 -11.64471,-1.5764 -22.41455,-4.2081 -32.52808,-7.9771 -9.94216,-3.705 -19.18132,-8.4829 -27.98694,-14.3748 -17.95618,-12.01466 -33.86616,-28.49327 -46.66756,-44.35178 -14.30831,-17.72529 -23.97584,-33.8262 -31.33776,-51.82365 -4.3205,-10.56219 -7.73201,-21.52958 -10.30333,-31.1033 -3.41743,-12.72401 -5.58573,-23.83929 -6.85247,-31.10325 z m -14.66499,2.74969 c 1.5048,7.51943 4.0816,19.0562 7.99149,32.18713 2.93846,9.86848 6.83735,21.32527 11.74959,32.41995 8.45897,19.10525 19.31274,35.85892 34.70471,53.90665 13.64577,16.00022 30.7067,32.91566 50.07073,45.25526 9.54806,6.0845 19.53731,10.9807 30.2266,14.7321 10.86536,3.8133 22.30837,6.3923 34.52215,7.8747 15.77798,1.915 32.65164,1.9771 49.65841,0.7423 10.86952,-0.7892 22.17919,-2.1421 33.81798,-4.0369 29.64315,-4.826 61.68613,-13.2201 89.53676,-25.0015 27.27716,-11.53877 50.24995,-26.21498 70.28015,-42.68275 9.88335,-8.12557 19.02778,-16.6682 27.9423,-26.23911 8.87433,-9.52775 17.49433,-20.04575 26.38648,-32.15867 17.73508,-24.15882 36.58502,-54.70657 50.95305,-84.68054 14.44463,-30.13377 24.33101,-59.62379 29.08328,-86.4997 1.64604,-9.309 2.67501,-18.29662 3.15549,-27.08262 0.21981,-4.01936 0.32676,-8.00021 0.32661,-11.95401 -4.7e-4,-12.62096 -1.09226,-24.9434 -3.07595,-37.33375 -3.95912,-24.72906 -11.49949,-49.89085 -21.94066,-72.66708 -10.45512,-22.80668 -23.85781,-43.30257 -41.26642,-61.67331 -17.37394,-18.33417 -38.61738,-34.42568 -62.30762,-47.45101 -23.63078,-12.99265 -49.95279,-23.07246 -76.00515,-27.76971 -26.19843,-4.72358 -51.65597,-3.92365 -78.47912,0.4597 -2.83519,0.46332 -5.68692,0.96688 -8.54679,1.50814 -10.38986,1.9664 -21.16197,4.48141 -31.88784,7.482 -13.0073,3.63883 -25.94697,7.99356 -37.7847,12.87404 -11.49995,4.74121 -21.85464,9.93567 -31.70271,15.90507 -9.67371,5.86372 -18.68998,12.37172 -27.77611,19.78739 -18.12208,14.7904 -36.41072,33.09505 -52.39667,51.57538 -16.84498,19.47339 -30.81559,38.80556 -42.80013,62.38567 -13.31,26.18802 -23.05391,55.38091 -29.07437,82.77747 -3.5113,15.97843 -5.79275,31.45506 -7.27753,44.55161 -1.40661,12.40711 -2.18003,23.38692 -2.60692,32.07491 -0.13348,2.71652 -0.23724,5.32273 -0.3151,7.80917 -0.41053,13.10976 -0.0989,23.06447 0.6134,31.761 1.03019,12.57725 3.02821,23.1452 4.22461,29.16102 z"
       id="path1"
       inkscape:original-d="m 230.6839,847.39125 c -1.24024,-16.12306 -2.48047,-32.24613 -3.72071,-48.3692 3.10065,-30.38639 6.20118,-60.77156 9.30177,-91.15735 10.23215,-27.90586 20.46389,-55.81062 30.69584,-83.71593 13.95294,-18.60391 27.90531,-37.20708 41.85797,-55.81062 17.98378,-17.67371 35.96684,-35.34672 53.95026,-53.02009 17.05359,-10.54221 34.10649,-21.08401 51.15974,-31.62602 27.5958,-7.75163 55.1905,-15.50295 82.78575,-23.25442 24.18509,-0.9302 48.36921,-1.86035 72.55381,-2.79053 25.42535,9.30195 50.84968,18.60354 76.27451,27.90531 20.77437,15.19319 41.54791,30.38578 62.32186,45.57867 13.33281,19.53411 26.66508,39.06744 39.99761,58.60115 7.75163,24.49515 15.50295,48.98933 23.25443,73.48399 0.62013,23.87502 1.24024,47.74908 1.86035,71.62363 -9.61202,29.14613 -19.22365,58.29109 -28.83548,87.43664 -18.60392,30.38639 -37.20708,60.77156 -55.81062,91.15734 -16.43346,17.67372 -32.86626,35.34673 -49.29939,53.02009 -22.63476,14.57307 -45.26861,29.14555 -67.90292,43.71829 -31.62665,8.3718 -63.25203,16.7432 -94.87805,25.1148 -28.21594,1.2403 -56.43074,2.4805 -84.64611,3.7207 -20.15424,-7.4415 -40.30767,-14.8828 -60.46151,-22.3242 -16.43345,-16.4335 -32.86625,-32.86628 -49.29938,-49.29941 -10.85228,-16.43346 -21.70413,-32.86626 -32.55619,-49.29938 -6.20131,-23.56496 -12.40236,-47.12897 -18.60354,-70.69346 z"
       inkscape:path-effect="#path-effect1;#path-effect3"
       inkscape:label="head" /><path
       style="opacity:1;fill:none;fill-opacity:1;stroke:#000000;stroke-width:11;stroke-linecap:round;stroke-dasharray:none;stroke-opacity:1"
       d="m 475.32045,706.00435 c 3.48817,-0.85266 6.97633,-1.70533 14.45662,-1.78283 7.48029,-0.0775 18.95224,0.62011 29.88193,1.74409 10.92968,1.12398 21.31645,2.67424 31.62601,4.57338 10.30956,1.89913 20.54131,4.14701 31.39349,6.78255 10.85218,2.63553 22.32413,5.65854 34.30028,9.18551 11.97616,3.52696 24.45578,7.55764 36.00558,11.20087 11.54981,3.64322 22.16912,6.89878 32.01358,9.9994 9.84447,3.10062 18.91351,6.04612 27.98274,8.99168"
       id="path8"
       inkscape:path-effect="#path-effect8"
       inkscape:original-d="m 475.32045,706.00435 c 3.48817,-0.85266 6.97633,-1.70532 10.46449,-2.55799 11.47242,0.69765 22.94437,1.39527 34.41655,2.0929 10.38719,1.55033 20.77396,3.10059 31.16093,4.65089 10.23215,2.24797 20.4639,4.49585 30.69584,6.74378 11.47242,3.02314 22.94437,6.04615 34.41655,9.06923 12.48013,4.03084 24.95975,8.06153 37.43963,12.0923 10.61973,3.25568 21.23904,6.51124 31.85856,9.76686 9.06941,2.94561 18.13845,5.89112 27.20768,8.83668"
       transform="translate(0.16443362,-0.16443362)"
       inkscape:label="mouth" /><path
       style="opacity:1;fill:#000000;fill-opacity:1;stroke:#000000;stroke-width:0;stroke-linecap:round;stroke-dasharray:none;stroke-opacity:1"
       d="m 703.34948,649.66082 c -0.79453,-0.33912 -0.93019,-0.39727 -1.90883,-1.33715 -0.97865,-0.93989 -2.80021,-2.76145 -3.88541,-5.3776 -1.08521,-2.61616 -1.43402,-6.02674 -0.94954,-8.79791 0.48448,-2.77118 1.80221,-4.90279 3.42034,-6.46279 1.61814,-1.55999 3.5366,-2.54829 5.52293,-2.88741 1.98634,-0.33912 4.04044,-0.0291 5.76516,0.96895 1.72471,0.99802 3.11995,2.68393 4.15672,4.75747 1.03677,2.07355 1.71501,4.5346 1.94755,7.05385 0.23254,2.51926 0.0194,5.09657 -0.77516,7.43172 -0.79454,2.33515 -2.1704,4.42801 -3.86606,5.42601 -1.69565,0.998 -3.711,0.90111 -5.44541,0.5426 -1.7344,-0.35851 -3.18777,-0.97861 -3.98229,-1.31774 z"
       id="path6"
       inkscape:path-effect="#path-effect6"
       inkscape:original-d="m 702.6906,649.37983 c -0.13566,-0.0581 -0.27131,-0.11628 -0.40696,-0.17441 -1.82163,-1.82164 -3.64319,-3.6432 -5.46479,-5.46479 -0.34882,-3.41072 -0.69763,-6.8213 -1.04645,-10.23195 1.31778,-2.1317 2.63551,-4.26331 3.95326,-6.39497 1.91852,-0.98833 3.83698,-1.97662 5.75547,-2.96494 2.05418,0.31007 4.10828,0.62012 6.16242,0.93018 1.39529,1.68598 2.79053,3.37189 4.1858,5.05784 0.67826,2.46114 1.3565,4.92219 2.03476,7.38328 -0.21317,2.57742 -0.42633,5.15473 -0.6395,7.73209 -1.37591,2.09294 -2.75177,4.1858 -4.12766,6.2787 -2.01542,-0.0969 -4.03077,-0.19379 -6.04615,-0.29068 -1.45343,-0.62013 -2.9068,-1.24024 -4.3602,-1.86035 z"
       inkscape:label="r-eye" /><path
       style="opacity:1;fill:#000000;fill-opacity:1;stroke:#000000;stroke-width:0;stroke-linecap:round;stroke-dasharray:none;stroke-opacity:1"
       d="m 561.55451,584.4793 c -0.78106,-1.9458 -1.79507,-4.54934 -1.9732,-7.04327 -0.17813,-2.49393 0.47959,-4.87817 1.98693,-7.02953 1.50733,-2.15136 3.86416,-4.06971 6.90622,-4.85077 3.04206,-0.78106 6.76915,-0.42479 9.45492,0.68515 2.68576,1.10995 4.33006,2.97349 5.08371,5.86482 0.75366,2.89133 0.61663,6.81026 -0.26037,10.2771 -0.87699,3.46684 -2.49389,6.48139 -4.93302,8.33128 -2.43913,1.84988 -5.70033,2.53501 -8.23537,2.0554 -2.53503,-0.47962 -4.34377,-2.12392 -5.52221,-3.59014 -1.17845,-1.46621 -1.72655,-2.75425 -2.50761,-4.70004 z"
       id="path7"
       inkscape:path-effect="#path-effect7"
       inkscape:original-d="m 561.78746,585.13703 c -1.01401,-2.60353 -2.02802,-5.20707 -3.04203,-7.8106 0.65775,-2.38433 1.31547,-4.76857 1.97321,-7.15286 2.35693,-1.91843 4.71376,-3.83678 7.07064,-5.75518 3.72724,0.35628 7.45433,0.71255 11.18149,1.06882 1.64437,1.86362 3.28867,3.72716 4.93301,5.59074 -0.13703,3.91908 -0.27406,7.83801 -0.41109,11.75701 -1.61696,3.01468 -3.23386,6.02923 -4.85079,9.04385 -3.26133,0.68515 -6.52253,1.37028 -9.7838,2.05542 -1.8088,-1.64437 -3.61754,-3.28867 -5.42631,-4.93301 -0.54812,-1.28809 -1.09622,-2.57613 -1.64433,-3.86419 z"
       inkscape:label="l-eye" /></g><g
     inkscape:groupmode="layer"
     id="layer6"
     inkscape:label="left-blob"><path
       style="opacity:1;fill:#000000;fill-opacity:1;fill-rule:nonzero;stroke:#000000;stroke-width:11;stroke-linecap:round;stroke-dasharray:none;stroke-opacity:1"
       d="m 247.89217,623.91623 c -0.10845,-0.0808 -0.27695,-0.21301 -0.42798,-0.38231 -0.12704,-0.14241 -0.23683,-0.30317 -0.33929,-0.50935 -0.0891,-0.17919 -0.15717,-0.35977 -0.23597,-0.56598 -0.0694,-0.18162 -0.14173,-0.36792 -0.23569,-0.55671 -0.16961,-0.34081 -0.40653,-0.68253 -0.81007,-1.01925 -0.36625,-0.30561 -0.86839,-0.60565 -1.575,-0.89126 -1.06908,-0.43212 -2.57953,-0.82845 -4.42911,-1.18321 -0.40977,-0.0786 -0.84277,-0.15735 -1.30204,-0.23796 -2.12443,-0.37287 -4.80423,-0.77619 -7.77277,-1.33856 -2.54869,-0.48283 -5.33509,-1.09308 -8.33305,-2.0001 -2.76335,-0.83604 -5.82636,-1.95887 -9.24522,-3.57068 -6.36524,-3.00089 -13.96194,-7.68256 -20.68408,-15.84574 -3.32557,-4.0385 -6.51247,-9.02004 -9.40316,-14.58506 -2.90903,-5.60034 -5.44497,-11.65017 -7.49193,-17.70124 -4.30404,-12.7233 -6.39125,-25.34098 -7.3132,-39.41119 -0.43449,-6.63079 -0.59474,-13.40014 -0.47647,-20.413 0.17504,-10.37949 0.92142,-21.24942 2.2143,-32.75602 2.49486,-22.20421 7.09234,-47.4089 14.37284,-73.79953 7.0213,-25.45106 17.29712,-54.68508 29.61364,-83.27032 8.34783,-19.37436 18.10396,-39.56003 30.67077,-60.12382 2.70215,-4.4217 5.60872,-8.98264 8.75054,-13.67862 13.98353,-20.90077 32.90481,-44.91552 56.48346,-67.11529 20.33101,-19.14204 43.8063,-36.52505 67.57207,-49.78252 21.83581,-12.18086 42.9674,-20.33713 66.60634,-25.751444 22.90209,-5.24554 47.85343,-7.856332 70.96459,-7.758304 11.45373,0.04858 22.35846,0.763052 32.38831,1.989379 10.10931,1.236043 19.26302,2.98371 27.16795,5.066849 8.01864,2.113101 14.72172,4.56329 20.49105,7.28204 5.90707,2.78365 10.88533,5.87308 15.28629,9.20341 9.33423,7.06349 16.42387,15.48742 21.44895,22.3303 2.80233,3.81607 4.9851,7.17523 6.77025,10.30289 1.96621,3.44491 3.46848,6.64374 4.70122,9.74458 2.95963,7.44464 4.6518,15.10971 5.44476,18.74711 0.0799,0.36648 0.15353,0.72315 0.22148,1.06959 0.65822,3.35614 0.82686,6.04216 1.02577,7.97751 0.25981,2.52787 0.60958,4.29748 1.8921,5.48691 0.89336,0.82851 2.80363,1.28652 3.36415,1.5448 0.54371,-0.28151 2.44056,-0.82883 3.287,-1.7117 1.20236,-1.25412 1.50064,-3.15768 1.43699,-5.92843 -0.0483,-2.10347 -0.33266,-5.14971 -0.7269,-8.89153 -0.0409,-0.38863 -0.0837,-0.79032 -0.12803,-1.20202 -0.45465,-4.22669 -1.78054,-12.43052 -4.98331,-21.20844 -1.32927,-3.64315 -2.99302,-7.40294 -5.19006,-11.40903 -1.99091,-3.63025 -4.39333,-7.41768 -7.39949,-11.58834 -5.34312,-7.41292 -13.19506,-16.88711 -23.8196,-24.95366 -5.05408,-3.837256 -10.75428,-7.372836 -17.44422,-10.524129 -6.51994,-3.071217 -13.93564,-5.757292 -22.58778,-8.027145 -8.50558,-2.231402 -18.20998,-4.061558 -28.79754,-5.339563 -10.51261,-1.268959 -21.89219,-1.992923 -33.80926,-2.022017 -23.99046,-0.05857 -49.85462,2.696187 -73.67785,8.209627 -24.75509,5.729103 -46.91392,14.356107 -69.66466,27.113507 -24.62429,13.80799 -48.83132,31.81574 -69.78405,51.60661 -24.28587,22.93918 -43.83709,47.84868 -58.08341,69.15549 -3.23084,4.83207 -6.2213,9.52497 -9.00268,14.0735 -12.94164,21.16403 -22.93543,41.86808 -31.41635,61.57249 -12.49827,29.03826 -22.92812,58.77295 -30.07275,84.78154 -7.41532,26.99399 -12.08769,52.79455 -14.6178,75.57148 -1.31205,11.8116 -2.07297,23.04256 -2.2444,33.82768 -0.1159,7.29186 0.0198,14.34708 0.41647,21.29157 0.84123,14.72912 2.81032,28.41971 7.25953,42.44449 2.10035,6.62074 4.7443,13.29922 7.84623,19.56399 3.06986,6.19997 6.60693,12.03184 10.5278,16.98281 8.08312,10.20672 17.34962,16.1126 24.97208,19.73368 4.0825,1.93941 7.82358,3.28288 11.26716,4.2293 3.73299,1.02597 7.13476,1.58881 10.14453,1.90472 3.46935,0.36414 6.55445,0.41642 8.92197,0.29896 0.51806,-0.0257 1.00809,-0.0597 1.46935,-0.10103 2.08531,-0.18678 3.78423,-0.55844 5.01776,-1.01976 0.81622,-0.30526 1.44319,-0.65149 1.93745,-1.016 0.53979,-0.3981 0.9358,-0.82973 1.21988,-1.25301 0.15835,-0.23595 0.28435,-0.47323 0.37778,-0.70312 0.10407,-0.25606 0.16645,-0.49944 0.19219,-0.726 0.0299,-0.26365 0.008,-0.48623 -0.0347,-0.67846 -0.0502,-0.22356 -0.1415,-0.4388 -0.18514,-0.55596 z"
       id="path52"
       inkscape:path-effect="#path-effect53;#path-effect54"
       inkscape:original-d="m 247.89217,623.91623 c -0.31006,0.23254 -0.62012,0.46509 -0.93017,0.69763 -5.58118,-0.15503 -11.16213,-0.31006 -16.74319,-0.46509 -6.27882,-1.55032 -12.55739,-3.10059 -18.83608,-4.65088 -8.29425,-5.34863 -16.58816,-10.69704 -24.88224,-16.04556 -6.2013,-12.63515 -12.40236,-25.2698 -18.60354,-37.90471 -2.17046,-12.94522 -4.34083,-25.88993 -6.51124,-38.83489 0.31007,-17.44117 0.62012,-34.88164 0.93018,-52.32246 4.49594,-25.58037 8.99171,-51.15973 13.48756,-76.7396 10.69725,-29.61123 21.39408,-59.22127 32.09111,-88.8319 12.40261,-24.03006 24.80472,-48.05915 37.20708,-72.08872 19.53411,-23.71999 39.06744,-47.43903 58.60115,-71.15854 24.03006,-17.36365 48.05915,-34.72661 72.08872,-52.08991 21.70457,-8.21673 43.40826,-16.433132 65.11239,-24.649696 25.42535,-2.635554 50.84968,-5.271003 76.27452,-7.906504 21.23946,2.790587 42.47808,5.581062 63.71712,8.371593 11.78248,5.891239 23.56449,11.782237 35.34673,17.673367 7.44156,8.68182 14.88283,17.3633 22.32425,26.04495 3.72078,6.6664 7.44141,13.33254 11.16212,19.99881 1.73686,7.69825 3.47364,15.39619 5.21046,23.09428 0.10962,4.76867 0.21924,9.53715 0.32887,14.30573"
       inkscape:label="head" /><path
       style="opacity:1;fill:none;fill-opacity:1;stroke:#000000;stroke-width:11;stroke-linecap:round;stroke-dasharray:none;stroke-opacity:1"
       d="m 338.81698,449.04295 c 3.41064,-2.48047 6.82129,-4.96094 10.19322,-7.09261 3.37192,-2.13168 6.70499,-3.91448 11.97607,-6.62753 5.27107,-2.71306 12.4798,-6.35618 18.95234,-9.18549 6.47254,-2.8293 12.20851,-4.84464 17.44081,-7.32515 5.23229,-2.4805 9.9606,-5.426 14.84408,-8.10028 4.88347,-2.67429 9.92183,-5.0772 16.54942,-7.98404 6.6276,-2.90683 14.844,-6.31741 21.47156,-9.03045 6.62756,-2.71303 11.66592,-4.72838 17.16953,-7.32515 5.5036,-2.59678 11.47212,-5.77482 20.96781,-10.69707 9.49568,-4.92226 22.5179,-11.58839 35.54038,-18.25466"
       id="path64"
       inkscape:path-effect="#path-effect64"
       inkscape:original-d="m 338.81698,449.04295 c 3.41064,-2.48047 6.82129,-4.96094 10.23194,-7.44141 3.3332,-1.78288 6.66627,-3.56568 9.99941,-5.34852 7.20901,-3.64327 14.41774,-7.28639 21.62661,-10.92958 5.73621,-2.01543 11.47218,-4.03077 17.20828,-6.04615 4.72849,-2.94562 9.4568,-5.89112 14.1852,-8.83668 5.03855,-2.40301 10.07691,-4.80592 15.11537,-7.20888 8.21673,-3.41071 16.43313,-6.82129 24.64969,-10.23194 5.03856,-2.01543 10.07692,-4.03077 15.11538,-6.04615 5.96875,-3.17817 11.93727,-6.35621 17.90591,-9.53432 13.02273,-6.6664 26.04495,-13.33254 39.06743,-19.9988"
       inkscape:label="mouth" /><path
       style="opacity:1;fill:#000000;fill-opacity:1;stroke:none;stroke-width:11;stroke-linecap:round;stroke-dasharray:none;stroke-opacity:1"
       d="m 547.5642,244.09395 c 0.34881,1.35651 0.62012,3.44941 0.0969,5.21289 -0.52324,1.76347 -1.84096,3.19746 -3.62383,4.49584 -1.78286,1.29839 -4.03074,2.46109 -6.47248,2.55797 -2.44174,0.0969 -5.07719,-0.87203 -6.86004,-2.558 -1.78284,-1.68597 -2.713,-4.08888 -2.73237,-6.33683 -0.0194,-2.24795 0.87203,-4.3408 2.36421,-5.91049 1.49218,-1.56968 3.58503,-2.61611 5.75547,-2.80989 2.17043,-0.19378 4.41832,0.46508 6.14303,1.06583 1.72472,0.60074 2.92617,1.14333 3.74008,1.7247 0.81391,0.58137 1.24023,1.20147 1.58905,2.55798 z"
       id="path67"
       inkscape:path-effect="#path-effect67"
       inkscape:original-d="m 547.64171,243.35756 c 0.27131,2.0929 0.54261,4.1858 0.81391,6.2787 -1.31778,1.43405 -2.6355,2.86804 -3.95325,4.30206 -2.24798,1.16275 -4.49586,2.32545 -6.74379,3.48817 -2.63555,-0.96896 -5.271,-1.93787 -7.9065,-2.90681 -0.9302,-2.403 -1.86035,-4.80591 -2.79053,-7.20887 0.89144,-2.09294 1.78284,-4.18579 2.67426,-6.27869 2.09294,-1.04647 4.18579,-2.0929 6.27869,-3.13935 2.24797,0.65889 4.49586,1.31775 6.74379,1.97663 1.2015,0.54261 2.40295,1.0852 3.60443,1.62781 0.42634,0.62013 0.85266,1.24023 1.27899,1.86035 z"
       inkscape:label="r-eye" /><path
       style="opacity:1;fill:#000000;fill-opacity:1;stroke:none;stroke-width:11;stroke-linecap:round;stroke-dasharray:none;stroke-opacity:1"
       d="m 320.62039,413.42492 c -0.83328,0.42634 -1.14334,0.46509 -2.2867,0.54261 -1.14337,0.0775 -3.11996,0.19379 -5.03847,-0.63952 -1.9185,-0.8333 -3.77882,-2.6161 -4.86403,-4.72841 -1.08521,-2.1123 -1.39526,-4.55396 -1.20147,-6.54998 0.1938,-1.99602 0.89142,-3.54629 1.70533,-4.80591 0.81391,-1.25962 1.74407,-2.22854 3.23625,-2.48046 1.49218,-0.25191 3.54628,0.21316 5.03845,1.14335 1.49216,0.93019 2.42232,2.32543 3.41065,3.52692 0.98832,1.20149 2.03475,2.20916 2.92618,3.35251 0.89142,1.14336 1.6278,2.42233 1.70531,3.87575 0.0775,1.45342 -0.50384,3.08119 -1.47279,4.30206 -0.96895,1.22086 -2.32543,2.03475 -3.15871,2.46108 z"
       id="path66"
       inkscape:label="l-eye"
       inkscape:original-d="m 320.09716,413.8125 c -0.31006,0.0387 -0.62011,0.0775 -0.93017,0.11627 -1.97667,0.11627 -3.95326,0.23254 -5.92988,0.34882 -1.86039,-1.78288 -3.72071,-3.56568 -5.58106,-5.34852 -0.31007,-2.44177 -0.62012,-4.88343 -0.93018,-7.32515 0.69765,-1.55032 1.39526,-3.10059 2.0929,-4.65088 0.93019,-0.96895 1.86035,-1.93787 2.79053,-2.9068 2.05418,0.46509 4.10828,0.93017 6.16242,1.39526 0.9302,1.39529 1.86036,2.79053 2.79053,4.1858 1.04647,1.00771 2.0929,2.01538 3.13935,3.02307 0.7364,1.27902 1.47278,2.55799 2.20917,3.83698 -0.58137,1.62785 -1.16272,3.25562 -1.74408,4.88343 -1.35654,0.81392 -2.71302,1.62781 -4.06953,2.44172 z"
       inkscape:path-effect="#path-effect66" /></g><g
     inkscape:groupmode="layer"
     id="layer7"
     inkscape:label="right-blob"><path
       style="opacity:1;fill:#000000;fill-opacity:1;fill-rule:nonzero;stroke:#000000;stroke-width:11;stroke-linecap:round;stroke-dasharray:none;stroke-opacity:1"
       d="m 526.84531,437.72229 c 0.65089,-0.55643 2.93174,-1.29156 3.90691,-3.33416 2.30942,-4.83734 0.78018,-16.32669 1.67504,-32.3351 0.56394,-10.0886 2.39213,-22.12353 6.69655,-35.56782 0.30317,-0.94691 0.61919,-1.91173 0.94873,-2.89399 3.79761,-11.31974 9.56283,-25.38501 17.18092,-38.64638 6.30164,-10.96972 13.29905,-20.40222 22.18183,-31.26129 7.87301,-9.62464 16.43707,-19.45269 25.6642,-29.74211 8.44319,-9.41522 17.15917,-18.91194 25.70128,-27.02225 8.20304,-7.78839 16.39816,-14.45157 26.20546,-21.24533 9.62034,-6.66424 20.73927,-13.42015 32.59036,-19.75595 11.78151,-6.29859 23.92421,-11.98738 37.40808,-15.97564 13.66423,-4.0416 28.75253,-6.3494 43.19469,-6.9755 14.83524,-0.64313 28.91631,0.48993 42.25575,2.85662 14.05153,2.49304 27.19248,6.3439 40.71159,11.82666 6.7838,2.75122 13.48765,5.84372 20.02163,9.4623 7.3268,4.05765 14.63265,8.87687 21.57548,14.73164 13.0569,11.01066 24.96173,25.7826 36.01785,41.29571 10.84198,15.21264 20.39656,30.45975 27.17976,45.79501 6.77304,15.31228 10.84728,30.86207 14.03015,46.16872 3.2202,15.48619 5.46279,30.40739 6.68739,47.11649 1.26331,17.23716 1.40768,35.86311 -0.36005,52.16002 -1.82547,16.82915 -5.72738,31.42798 -10.39402,45.7728 -5.02407,15.44349 -10.88896,30.402 -18.02021,45.51837 -7.8803,16.70414 -17.0077,32.96856 -26.93695,48.19571 -4.41395,6.76906 -8.95646,13.28866 -13.42486,19.3647 -6.90702,9.39206 -13.96991,18.13738 -20.70921,25.70433 -12.05815,13.53901 -22.91248,23.11018 -33.24143,30.5457 -11.97529,8.62067 -24.21052,14.97439 -33.85223,19.84674 -7.34155,3.71 -13.76874,6.83884 -18.75013,9.40873 -7.8608,4.05539 -14.83099,6.35674 -16.04757,8.99629 -0.44631,0.96833 0.30489,2.29491 0.36586,2.7539 0.31124,0.34274 0.83987,1.77278 1.86769,2.05662 2.76609,0.76388 9.10454,-3.04 17.24408,-6.57918 5.06766,-2.20349 11.81126,-5.38537 19.13581,-9.17833 9.77743,-5.06316 22.16596,-11.98201 34.44255,-21.37127 10.56637,-8.08126 21.49113,-18.27028 33.62825,-32.26787 6.77347,-7.81177 13.87626,-16.75143 20.8668,-26.27932 4.52377,-6.16574 9.13298,-12.77627 13.62275,-19.63813 10.10192,-15.43911 19.43081,-31.89992 27.54543,-48.8201 7.34755,-15.32071 13.4397,-30.47786 18.70337,-46.126 4.88548,-14.52385 9.11489,-29.59224 11.20163,-47.0774 2.0112,-16.85216 2.04248,-35.95032 0.9555,-53.5159 -1.05833,-17.10251 -3.15734,-32.40743 -6.248,-48.25507 -3.04309,-15.6037 -7.07463,-31.89134 -14.03316,-48.10656 -6.95891,-16.2161 -16.7484,-32.13983 -27.63134,-47.71291 -11.04813,-15.80945 -23.39572,-31.49851 -37.31948,-43.44241 -7.47098,-6.40867 -15.29908,-11.65728 -23.07716,-16.04629 -6.93501,-3.91329 -13.994,-7.24167 -21.05043,-10.18625 -14.09231,-5.88059 -27.90033,-10.1211 -42.71109,-12.94808 -14.02531,-2.67705 -28.91766,-4.08444 -44.6748,-3.61115 -15.27228,0.45872 -31.36279,2.68648 -46.14757,6.83685 -14.66033,4.11545 -27.71812,10.0331 -39.98536,16.36288 -12.32747,6.36087 -23.98211,13.20548 -34.16973,20.03698 -10.46025,7.01432 -19.3159,13.97909 -28.16732,22.16516 -9.10639,8.42189 -18.24988,18.18811 -26.80784,27.56964 -9.3859,10.28916 -18.20349,20.28061 -26.29683,30.11173 -9.17471,11.14467 -16.74466,21.32049 -23.53075,33.30633 -8.13487,14.36812 -14.06881,29.43869 -17.78864,41.59713 -0.32407,1.05924 -0.63286,2.10051 -0.92705,3.12332 -4.17265,14.50711 -6.61073,27.40992 -7.43261,38.65849 -1.25391,17.1614 1.08871,30.1708 3.8668,34.00953 1.33033,1.83824 3.71687,2.13872 4.45565,2.56264 z"
       id="path51"
       inkscape:path-effect="#path-effect51;#path-effect52"
       inkscape:original-d="m 526.84531,437.72229 c -1.09622,-11.7296 -2.19245,-23.4592 -3.28867,-35.18879 2.74061,-13.59345 5.48112,-27.18636 8.22168,-40.77954 6.13898,-14.14157 12.27771,-28.28258 18.41656,-42.42387 7.67373,-10.08547 15.34714,-20.17053 23.02071,-30.25579 8.87959,-10.08546 17.75883,-20.17052 26.63825,-30.25579 8.76997,-9.42771 17.53958,-18.85505 26.30938,-28.28258 8.55072,-6.79672 17.10109,-13.59318 25.65164,-20.38977 11.40096,-6.79672 22.80146,-13.59318 34.20219,-20.38977 12.60683,-5.8101 25.21316,-11.61997 37.81974,-17.42996 15.56669,-2.30212 31.13276,-4.60414 46.69914,-6.90621 14.47045,1.20587 28.94032,2.41169 43.41048,3.61754 13.48382,3.94648 26.96711,7.89281 40.45067,11.83922 15.01857,7.78335 30.03654,15.56638 45.05481,23.34957 12.16833,15.34745 24.33617,30.69428 36.50426,46.04142 9.64697,15.56669 19.29355,31.13276 28.94032,46.69914 4.05611,15.89557 8.11206,31.7905 12.16809,47.68575 2.19249,15.1282 4.38489,30.25579 6.57734,45.38368 0.10963,18.96506 0.21925,37.92936 0.32887,56.89403 -3.94649,14.6897 -7.89282,29.37881 -11.83922,44.06821 -5.91973,15.1282 -11.83922,30.25579 -17.75883,45.38368 -9.09884,16.44369 -18.19732,32.88672 -27.29598,49.33009 -12.16833,16.11481 -24.33618,32.22899 -36.50427,48.34348 -10.85283,10.08546 -21.70523,20.17052 -32.55785,30.25579 -11.29134,6.35822 -22.58222,12.7162 -33.87333,19.0743 -12.27795,5.70047 -24.55542,11.40073 -36.83313,17.10109"
       inkscape:label="head" /><path
       style="opacity:1;fill:none;fill-opacity:1;stroke:#000000;stroke-width:11;stroke-linecap:round;stroke-dasharray:none;stroke-opacity:1"
       d="m 696.70258,384.86074 c 2.24793,-0.46509 4.49586,-0.93018 8.6042,-0.62011 4.10834,0.31007 10.07685,1.39525 17.82843,4.06956 7.75157,2.6743 17.28569,6.93753 27.16892,12.09232 9.88324,5.15479 20.11498,11.20082 30.77337,19.80507 10.65839,8.60424 21.74277,19.76615 31.35468,29.53309 9.61191,9.76694 17.7508,18.13837 25.88993,26.35501 8.13913,8.21664 16.27802,16.27802 24.10709,23.37068 7.82906,7.09266 15.34784,13.2162 20.73514,18.02215 5.38731,4.80595 8.64287,8.29404 10.46447,11.00708 1.8216,2.71304 2.20917,4.65087 2.59674,6.58873"
       id="path65"
       inkscape:path-effect="#path-effect65"
       inkscape:original-d="m 696.70258,384.86074 c 2.24793,-0.46509 4.49586,-0.93018 6.74378,-1.39527 5.96876,1.08523 11.93727,2.17042 17.90591,3.25562 9.53451,4.2634 19.06863,8.52662 28.60294,12.78994 10.23216,6.04627 20.4639,12.0923 30.69585,18.13845 11.08483,11.16234 22.16921,22.32425 33.25382,33.48637 8.13921,8.37176 16.2781,16.74319 24.41715,25.11478 8.13921,8.06169 16.2781,16.12307 24.41715,24.1846 7.51908,6.12379 15.03786,12.24733 22.55679,18.371 3.25568,3.48823 6.51124,6.97632 9.76686,10.46449 0.38758,1.93791 0.77514,3.87574 1.16272,5.8136"
       inkscape:label="mouth" /><path
       style="opacity:1;fill:#000000;fill-opacity:1;stroke:none;stroke-width:11;stroke-linecap:round;stroke-dasharray:none;stroke-opacity:1"
       d="m 819.53715,308.86115 c 0.43849,1.86358 0.54812,4.60414 -0.10963,7.12548 -0.65775,2.52133 -2.08282,4.82336 -4.22048,6.54992 -2.13767,1.72657 -4.98779,2.87757 -7.75579,3.0146 -2.76799,0.13702 -5.45368,-0.73994 -7.75577,-2.57615 -2.30209,-1.8362 -4.22045,-4.63152 -5.01521,-7.15286 -0.79476,-2.52133 -0.4659,-4.76855 0.46591,-6.4403 0.93181,-1.67176 2.46649,-2.76796 3.9464,-3.86419 1.47992,-1.09623 2.90499,-2.19244 4.93303,-2.82277 2.02804,-0.63033 4.65892,-0.79476 7.01582,-0.32885 2.35691,0.4659 4.43969,1.56211 5.86479,2.60353 1.4251,1.04142 2.19244,2.028 2.63093,3.89159 z"
       id="path69"
       inkscape:path-effect="#path-effect69"
       inkscape:original-d="m 819.86602,307.98417 c 0.10962,2.74056 0.21924,5.48112 0.32887,8.22168 -1.42512,2.30211 -2.85019,4.60414 -4.27528,6.90621 -2.85024,1.15106 -5.70036,2.30207 -8.55055,3.4531 -2.6858,-0.87699 -5.37149,-1.75395 -8.05724,-2.63093 -1.91843,-2.79543 -3.83679,-5.59075 -5.75518,-8.38612 0.32887,-2.2473 0.65773,-4.49452 0.9866,-6.74178 1.53475,-1.09624 3.06943,-2.19244 4.60414,-3.28867 1.42512,-1.09624 2.85019,-2.19245 4.27528,-3.28867 2.63099,-0.16444 5.26187,-0.32887 7.89281,-0.4933 2.08287,1.09624 4.16565,2.19245 6.24848,3.28867 0.76737,0.98662 1.53471,1.9732 2.30207,2.95981 z"
       inkscape:label="l-eye" /><path
       style="opacity:1;fill:#000000;fill-opacity:1;stroke:none;stroke-width:11;stroke-linecap:round;stroke-dasharray:none;stroke-opacity:1"
       d="m 915.85414,428.43179 c 0.4522,0.82217 1.35659,2.46651 2.64466,3.90531 1.28808,1.43881 2.95979,2.67204 4.82339,3.27496 1.8636,0.60293 3.91898,0.57553 6.08405,-0.21924 2.16506,-0.79478 4.43968,-2.35687 6.17995,-4.06974 1.74027,-1.71286 2.94609,-3.57641 3.57642,-5.52222 0.63033,-1.94582 0.68514,-3.9738 0.21923,-5.93332 -0.4659,-1.95952 -1.45249,-3.85047 -3.08314,-5.38519 -1.63066,-1.53473 -3.90528,-2.71315 -6.16626,-3.02831 -2.26098,-0.31516 -4.5082,0.23295 -6.74178,1.23327 -2.23358,1.00032 -4.45339,2.45278 -6.00181,3.9327 -1.54843,1.47992 -2.42539,2.9872 -2.87758,4.34379 -0.45219,1.35659 -0.47959,2.56241 -0.26034,3.64494 0.21925,1.08253 0.68514,2.04171 0.91808,2.52131 0.23295,0.47959 0.23294,0.47957 0.68513,1.30174 z"
       id="path70"
       inkscape:path-effect="#path-effect70"
       inkscape:original-d="m 915.40195,427.60962 c 0.90439,1.64434 1.80877,3.28868 2.71316,4.93301 1.67177,1.23328 3.34348,2.46651 5.01522,3.69976 2.05546,-0.0274 4.11084,-0.0548 6.16626,-0.0822 2.27471,-1.56215 4.54933,-3.12424 6.824,-4.68636 1.20587,-1.86361 2.41169,-3.72716 3.61754,-5.59074 0.0548,-2.02805 0.10962,-4.05603 0.16443,-6.08404 -0.98662,-1.89103 -1.9732,-3.78198 -2.95981,-5.67296 -2.27471,-1.17847 -4.54933,-2.35689 -6.82399,-3.53533 -2.2473,0.54813 -4.49452,1.09623 -6.74178,1.64434 -2.2199,1.45253 -4.43971,2.90499 -6.65956,4.35749 -0.877,1.50734 -1.75396,3.01462 -2.63094,4.52193 -0.0274,1.20587 -0.0548,2.41169 -0.0822,3.61754 0.4659,0.95921 0.93179,1.91839 1.39768,2.87758 z"
       inkscape:label="r-eye" /></g><g
     inkscape:groupmode="layer"
     id="layer3"
     inkscape:label="question-marks"><ellipse
       style="opacity:1;fill:#000000;fill-opacity:1;stroke:none;stroke-width:11;stroke-linecap:round;stroke-dasharray:none;stroke-opacity:1"
       id="path78"
       ry="4.9997015"
       rx="5.1741099"
       cy="241.84602"
       cx="148.88646"
       inkscape:label="path78" /><path
       style="opacity:1;fill:none;fill-opacity:1;stroke:#000000;stroke-width:11;stroke-linecap:round;stroke-dasharray:none;stroke-opacity:1"
       d="m 72.515225,173.97077 c 1.315468,-4.65895 2.630939,-9.31791 6.412974,-14.30578 3.782034,-4.98787 10.030386,-10.30445 15.484149,-12.46949 5.453762,-2.16503 10.112622,-1.17845 13.373912,1.86362 3.26128,3.04208 5.12483,8.13942 5.80996,13.83985 0.68514,5.70043 0.19184,12.00359 -0.0274,16.90923 -0.21925,4.90563 -0.16443,8.41348 0.30147,11.09925 0.4659,2.68577 1.34286,4.54931 3.80941,8.05728 2.46654,3.50797 6.52249,8.66012 10.57852,13.81237"
       id="path75"
       inkscape:path-effect="#path-effect75"
       inkscape:original-d="m 72.515225,173.97077 c 1.315469,-4.65895 2.630938,-9.31791 3.946407,-13.97686 6.248603,-5.31679 12.496955,-10.63337 18.745433,-15.95006 4.659045,0.98662 9.317905,1.9732 13.976855,2.9598 1.86362,5.09755 3.72716,10.19489 5.59075,15.29233 -0.49332,6.30342 -0.98661,12.60658 -1.47991,18.90987 0.0548,3.50798 0.10963,7.01583 0.16444,10.52375 0.87699,1.86362 1.75395,3.72716 2.63093,5.59074 4.05611,5.15236 8.11206,10.30451 12.16809,15.45676" /><ellipse
       style="opacity:1;fill:#000000;fill-opacity:1;stroke:none;stroke-width:11;stroke-linecap:round;stroke-dasharray:none;stroke-opacity:1"
       id="path79"
       cx="965.17493"
       cy="183.24487"
       rx="4.7671571"
       ry="4.6508851" /><path
       style="opacity:1;fill:none;fill-opacity:1;stroke:#000000;stroke-width:11;stroke-linecap:round;stroke-dasharray:none;stroke-opacity:1"
       d="m 932.735,105.80763 c 0.31006,-1.47278 0.62011,-2.94556 2.4805,-4.84469 1.86039,-1.899138 5.27097,-4.224532 10.34825,-5.929867 5.07729,-1.705335 11.82094,-2.79052 17.24701,-2.9843 5.42607,-0.19378 9.53427,0.503838 12.75116,2.364221 3.21688,1.860384 5.54228,4.883402 6.35618,8.720426 0.81389,3.83703 0.11627,8.48782 -1.82163,12.78993 -1.93789,4.30211 -5.11593,8.25528 -8.13904,12.24733 -3.0231,3.99205 -5.8911,8.02274 -7.63518,11.39465 -1.74409,3.37192 -2.36419,6.08489 -2.4417,8.48786 -0.0775,2.40298 0.38756,4.49584 0.85265,6.58874"
       id="path76"
       inkscape:path-effect="#path-effect76"
       inkscape:original-d="m 932.735,105.80763 c 0.31006,-1.47278 0.62011,-2.94556 0.93017,-4.41834 3.41072,-2.325485 6.8213,-4.650881 10.23195,-6.976324 6.74392,-1.085228 13.48757,-2.170413 20.23135,-3.255619 4.10836,0.697647 8.21656,1.395265 12.32485,2.092898 2.32548,3.023136 4.65088,6.046151 6.97632,9.069225 -0.69764,4.65098 -1.39526,9.30177 -2.0929,13.95266 -3.17816,3.95333 -6.3562,7.9065 -9.53431,11.85975 -2.8681,4.03085 -5.73609,8.06154 -8.60414,12.0923 -0.62013,2.71307 -1.24023,5.42604 -1.86035,8.13905 0.4651,2.09294 0.93018,4.1858 1.39526,6.2787" /><ellipse
       style="opacity:1;fill:#000000;fill-opacity:1;stroke:none;stroke-width:11;stroke-linecap:round;stroke-dasharray:none;stroke-opacity:1"
       id="path80"
       cx="763.76996"
       cy="934.76239"
       rx="5.0152254"
       ry="5.0974422" /><path
       style="opacity:1;fill:none;fill-opacity:1;stroke:#000000;stroke-width:11;stroke-linecap:round;stroke-dasharray:none;stroke-opacity:1"
       d="m 766.6984,845.29836 c -0.31006,-1.47278 -0.62012,-2.94556 0.27132,-4.26332 0.89144,-1.31777 2.9843,-2.48047 6.51127,-3.1781 3.52697,-0.69764 8.48782,-0.93018 13.13875,0.0775 4.65092,1.00771 8.99166,3.25559 11.85972,6.23995 2.86806,2.98436 4.2633,6.70499 4.30204,10.69704 0.0387,3.99205 -1.27898,8.25528 -4.45713,11.85975 -3.17816,3.60446 -8.21652,6.54996 -12.78993,9.18549 -4.57341,2.63552 -8.68161,4.96092 -11.47215,6.93756 -2.79055,1.97664 -4.2633,3.60442 -6.35623,6.6663 -2.09292,3.06188 -4.80588,7.55764 -7.5189,12.0535"
       id="path77"
       inkscape:path-effect="#path-effect77"
       inkscape:original-d="m 766.6984,845.29836 c -0.31006,-1.47278 -0.62012,-2.94556 -0.93018,-4.41834 2.09294,-1.16275 4.1858,-2.32545 6.2787,-3.48817 4.96104,-0.23255 9.92189,-0.46509 14.88283,-0.69763 4.34091,2.24797 8.68165,4.49586 13.02248,6.74378 1.39529,3.72079 2.79053,7.44142 4.18579,11.16213 -1.31777,4.26339 -2.6355,8.52662 -3.95325,12.78993 -5.03856,2.94562 -10.07692,5.89112 -15.11537,8.83668 -4.10837,2.32549 -8.21657,4.65089 -12.32485,6.97633 -1.47281,1.62784 -2.94556,3.25562 -4.41834,4.88343 -2.71307,4.49595 -5.42603,8.99171 -8.13905,13.48757"
       transform="translate(14.882832,8.8366816)" /></g></svg>
