<svg id="eeSQjOhKMRb1" xmlns="http://www.w3.org/2000/svg" xmlns:xlink="http://www.w3.org/1999/xlink" viewBox="0 0 32 32" shape-rendering="geometricPrecision" text-rendering="geometricPrecision"><line x1="-13" y1="0" x2="13" y2="0" transform="matrix(.923077 0 0 1 16 23)" fill="none" stroke="#000" stroke-width="2" stroke-linecap="round"/><line x1="-13" y1="0" x2="-3" y2="0" transform="matrix(.965926 0.258819 0.258819-.965926 25.291692 14.038882)" fill="none" stroke="#000" stroke-width="2" stroke-linecap="round"/><line x1="-13" y1="0" x2="-5" y2="0" transform="matrix(.965926 0.258819 0.258819-.965926 22.962321 22.732215)" fill="none" stroke="#000" stroke-width="2" stroke-linecap="round"/><line x1="-13" y1="0" x2="-5" y2="0" transform="matrix(.965926 0.258819 0.258819-.965926 23.738778 19.834437)" fill="none" stroke="#000" stroke-width="2" stroke-linecap="round"/><line x1="-13" y1="0" x2="-12" y2="0" transform="matrix(.965926 0.258819 0.258819-.965926 34.363962 22.681447)" fill="none" stroke="#000" stroke-width="2" stroke-linecap="round"/><line x1="-13" y1="0" x2="-10" y2="0" transform="matrix(.965926 0.258819 0.258819-.965926 24.515235 16.93666)" fill="none" stroke="#000" stroke-width="2" stroke-linecap="round"/><line x1="-13" y1="0" x2="-8" y2="0" transform="matrix(.965926 0.258819 0.258819-.965926 30.31079 18.489574)" fill="none" stroke="#000" stroke-width="2" stroke-linecap="round"/><path d="M7,21L7,7Q7,5,9,5t14,0q2,0,2,2t0,9" transform="matrix(.965926 0.258819-.258819 0.965926 5.14595 0.358638)" fill="none" stroke="#000" stroke-width="2"/></svg>
