<?xml version="1.0" standalone="no"?>
<!DOCTYPE svg PUBLIC "-//W3C//DTD SVG 20010904//EN"
 "http://www.w3.org/TR/2001/REC-SVG-20010904/DTD/svg10.dtd">
<svg version="1.0" xmlns="http://www.w3.org/2000/svg"
 width="982.000000pt" height="982.000000pt" viewBox="0 0 982.000000 982.000000"
 preserveAspectRatio="xMidYMid meet">
<metadata>
Created by potrace 1.14, written by Peter Selinger 2001-2017
</metadata>
<g transform="translate(0.000000,982.000000) scale(0.100000,-0.100000)"
fill="#000000" stroke="none">
<path d="M4568 9765 c-2 -2 -48 -6 -103 -10 -137 -10 -161 -12 -230 -20 -33
-4 -71 -9 -85 -10 -14 -2 -27 -4 -30 -5 -3 -1 -9 -2 -13 -1 -5 1 -36 -3 -70
-10 -34 -6 -75 -12 -92 -14 -16 -2 -30 -4 -30 -5 0 -1 -9 -3 -20 -4 -26 -4
-104 -17 -130 -23 -30 -6 -62 -13 -90 -17 -14 -3 -33 -7 -43 -10 -9 -3 -28 -7
-42 -10 -24 -5 -213 -53 -235 -60 -5 -1 -23 -6 -40 -11 -16 -4 -66 -19 -110
-33 -44 -14 -82 -27 -85 -27 -29 -7 -127 -39 -135 -44 -5 -4 -28 -13 -50 -20
-35 -11 -155 -57 -210 -81 -153 -64 -243 -106 -328 -152 -48 -27 -92 -48 -97
-48 -5 0 -22 -11 -39 -26 -16 -14 -34 -25 -38 -24 -4 1 -43 -21 -86 -47 -43
-26 -85 -52 -95 -58 -38 -22 -117 -79 -120 -87 -2 -4 -8 -8 -14 -8 -10 0 -242
-174 -293 -220 -16 -15 -52 -47 -80 -71 -183 -160 -395 -384 -528 -558 -32
-42 -63 -83 -70 -91 -7 -9 -25 -36 -41 -60 -17 -25 -39 -55 -50 -67 -11 -13
-15 -23 -10 -23 5 0 4 -4 -2 -8 -14 -9 -148 -220 -167 -262 -4 -8 -17 -31 -28
-50 -23 -37 -163 -311 -164 -320 -1 -3 -10 -25 -22 -50 -57 -121 -167 -410
-179 -470 -3 -13 -10 -30 -15 -36 -5 -7 -9 -16 -8 -20 3 -10 -11 -64 -20 -79
-3 -5 -6 -15 -7 -20 -1 -6 -11 -45 -23 -88 -24 -86 -64 -266 -77 -337 -6 -38
-12 -65 -14 -65 -1 0 -3 -11 -4 -25 -2 -14 -6 -39 -11 -55 -4 -17 -9 -41 -10
-55 -1 -14 -5 -45 -10 -70 -4 -25 -9 -54 -11 -65 -1 -11 -5 -40 -8 -65 -9 -62
-15 -115 -21 -180 -3 -30 -7 -68 -10 -85 -13 -91 -20 -295 -20 -565 1 -333 7
-475 32 -680 3 -30 7 -68 9 -85 1 -16 5 -50 8 -75 4 -25 8 -58 10 -75 2 -16 7
-43 10 -60 4 -16 9 -48 12 -70 8 -56 11 -76 18 -105 5 -24 13 -61 20 -105 10
-58 40 -185 72 -305 20 -74 37 -139 38 -145 2 -5 5 -17 8 -25 8 -21 33 -104
34 -112 1 -5 2 -9 3 -10 2 -2 4 -14 7 -27 2 -14 9 -30 15 -37 6 -7 8 -18 4
-24 -3 -5 -1 -10 4 -10 6 0 10 -3 9 -7 -3 -10 32 -115 42 -128 5 -5 8 -14 8
-18 0 -12 64 -170 75 -185 5 -6 6 -12 3 -12 -4 0 0 -12 8 -27 9 -16 42 -84 75
-153 66 -137 126 -250 186 -350 36 -61 187 -290 206 -314 5 -6 47 -60 93 -120
163 -208 372 -425 547 -567 23 -19 58 -49 78 -66 20 -18 39 -33 42 -33 3 0 19
-12 35 -26 16 -14 41 -32 57 -40 15 -8 27 -18 27 -23 0 -5 14 -14 30 -21 17
-7 30 -16 30 -21 0 -5 5 -9 12 -9 6 0 19 -7 28 -15 33 -30 257 -162 365 -215
39 -19 72 -38 73 -42 2 -5 8 -8 13 -8 5 0 42 -15 81 -33 40 -19 116 -51 168
-71 52 -21 103 -42 112 -47 10 -5 26 -9 36 -9 10 0 22 -4 27 -9 6 -6 21 -12
35 -15 14 -3 77 -21 140 -41 63 -19 124 -37 135 -39 11 -2 78 -19 149 -36 71
-17 143 -34 160 -36 17 -3 40 -7 51 -10 11 -2 36 -6 55 -9 19 -3 42 -7 50 -10
19 -6 119 -21 205 -31 22 -2 56 -7 75 -10 19 -2 60 -7 90 -10 30 -2 75 -7 100
-9 254 -27 938 -27 1195 -1 22 2 77 7 122 11 46 3 91 8 101 10 11 2 55 7 98
11 89 8 119 12 119 14 0 1 15 3 33 6 17 2 47 6 65 8 17 3 32 5 32 6 0 1 14 3
30 5 17 1 46 5 65 9 19 4 60 11 90 16 30 6 66 13 80 16 14 3 34 7 45 8 38 6
116 22 153 30 9 2 67 16 129 30 62 14 123 30 137 36 15 5 26 7 26 5 0 -2 11 0
25 5 14 5 36 12 48 14 46 10 63 15 90 25 15 6 27 8 27 5 0 -4 6 -2 13 4 6 6
14 10 17 10 23 -1 457 139 476 153 6 5 14 6 17 2 4 -3 7 -1 7 5 0 7 7 12 15
12 31 0 394 155 407 174 4 6 8 8 8 3 0 -13 287 139 428 227 45 28 90 56 100
61 21 12 182 125 199 140 7 5 18 15 25 20 171 134 206 165 337 295 74 73 189
201 241 266 40 50 109 144 135 184 17 25 32 47 35 50 3 3 33 50 65 105 93 154
171 307 231 453 52 125 57 136 61 150 1 6 5 18 6 25 2 6 9 26 16 42 25 64 42
116 56 175 0 3 9 32 19 65 10 33 20 71 23 85 2 14 9 43 15 65 10 40 14 55 23
97 2 13 8 37 12 53 3 17 8 39 9 50 1 11 4 35 8 53 14 76 18 98 21 122 2 14 6
44 9 68 3 23 8 61 11 85 3 23 8 65 11 92 40 309 39 1022 -1 1495 -3 41 -8 100
-10 130 -2 30 -4 55 -5 55 -1 0 -3 18 -5 40 -7 66 -12 106 -20 175 -11 91 -13
105 -15 105 -2 0 -5 22 -15 104 -3 30 -8 57 -10 61 -2 3 -7 29 -10 56 -4 27
-9 58 -13 69 -7 23 -6 17 -17 80 -11 64 -9 56 -35 170 -12 53 -23 104 -25 113
-2 9 -4 17 -5 17 -1 0 -3 9 -5 19 -2 11 -7 31 -11 45 -4 14 -8 33 -9 41 -1 8
-4 22 -8 30 -3 8 -20 67 -37 130 -29 108 -90 301 -110 345 -4 11 -22 56 -40
100 -17 44 -38 94 -47 110 -10 17 -16 31 -15 32 7 11 -147 317 -231 458 -27
44 -54 89 -60 100 -7 11 -15 22 -18 25 -3 3 -27 39 -54 80 -27 41 -51 77 -55
80 -4 3 -32 39 -64 80 -92 121 -237 282 -340 379 -21 20 -55 52 -75 71 -20 19
-75 66 -121 105 -47 38 -88 74 -92 80 -4 5 -8 7 -8 3 0 -3 -13 5 -29 19 -16
14 -80 61 -142 104 -63 43 -119 83 -126 89 -7 5 -14 10 -17 10 -3 0 -47 26
-98 58 -51 31 -106 64 -123 72 -16 8 -32 18 -35 21 -7 9 -376 192 -420 209
-19 7 -38 12 -42 11 -5 0 -8 3 -8 9 0 5 -6 10 -14 10 -8 0 -44 14 -81 30 -37
17 -71 30 -77 30 -5 0 -24 7 -41 15 -91 42 -441 151 -647 200 -100 24 -114 28
-125 31 -5 1 -35 7 -65 13 -30 6 -66 14 -80 17 -62 13 -77 16 -105 19 -16 2
-30 4 -30 5 0 2 -21 6 -75 14 -19 3 -48 7 -65 10 -63 10 -149 21 -245 31 -25
2 -67 6 -95 10 -27 3 -77 8 -110 11 -64 6 -731 14 -737 9z m473 -710 c5 -4 9
-2 9 3 0 10 75 10 86 0 4 -4 14 -4 23 1 9 4 34 7 56 5 22 -1 101 -5 175 -8 74
-3 151 -8 170 -10 19 -3 60 -7 90 -10 30 -4 71 -8 90 -11 19 -2 55 -7 80 -10
55 -7 206 -32 240 -40 14 -3 39 -7 55 -9 17 -3 53 -10 80 -16 88 -20 100 -23
118 -24 9 0 17 -4 17 -8 0 -4 9 -8 20 -8 10 0 45 -7 77 -16 32 -9 64 -16 71
-17 6 0 12 -4 12 -9 0 -5 5 -6 10 -3 6 4 17 2 24 -4 8 -7 18 -11 22 -10 5 1
11 0 14 -1 3 -1 12 -3 20 -5 49 -10 349 -116 425 -150 17 -7 55 -23 85 -36 83
-34 378 -186 390 -200 3 -3 16 -12 30 -19 33 -17 288 -187 305 -203 7 -7 23
-19 35 -27 13 -8 33 -25 46 -37 13 -13 27 -23 33 -23 5 0 11 -3 13 -7 2 -5 21
-23 43 -42 162 -136 339 -324 443 -471 26 -36 50 -66 54 -68 5 -2 8 -7 8 -12
0 -5 18 -36 40 -69 22 -33 40 -64 40 -70 0 -5 4 -11 9 -13 11 -4 148 -268 186
-358 15 -36 35 -83 45 -105 23 -53 88 -246 107 -315 22 -84 62 -246 67 -272 3
-13 5 -23 6 -23 2 0 9 -34 15 -70 3 -16 7 -40 10 -52 14 -64 34 -163 39 -198
6 -43 20 -130 21 -135 1 -3 5 -34 9 -70 4 -36 10 -78 12 -95 5 -32 11 -81 19
-158 2 -26 7 -52 10 -57 3 -5 1 -11 -5 -15 -6 -4 -7 -11 -3 -18 3 -6 8 -29 10
-51 3 -45 14 -253 13 -273 0 -7 0 -32 0 -55 4 -499 -1 -744 -16 -883 -4 -33
-7 -79 -7 -102 -1 -24 -4 -43 -7 -43 -3 0 -5 -21 -6 -48 -1 -26 -4 -67 -8 -92
-3 -25 -8 -61 -11 -80 -2 -19 -11 -70 -19 -115 -9 -44 -17 -91 -20 -105 -3
-20 -29 -133 -40 -175 -2 -5 -6 -23 -10 -40 -26 -103 -91 -307 -133 -415 -30
-77 -83 -197 -105 -235 -6 -11 -15 -27 -19 -35 -37 -71 -59 -108 -115 -193
-35 -54 -69 -104 -74 -110 -6 -7 -38 -47 -71 -89 -33 -43 -66 -78 -72 -78 -5
0 -8 -3 -4 -6 3 -4 -37 -50 -91 -103 -220 -220 -414 -359 -722 -519 -58 -30
-111 -59 -119 -66 -8 -6 -15 -10 -15 -8 -1 2 -28 -9 -61 -24 -67 -29 -95 -41
-110 -44 -5 -1 -21 -8 -35 -16 -21 -12 -56 -27 -95 -41 -64 -22 -403 -133
-408 -132 -1 0 -14 -4 -30 -10 -15 -6 -38 -13 -50 -16 -12 -2 -76 -18 -142
-35 -66 -16 -174 -41 -240 -55 -128 -27 -138 -29 -200 -40 -22 -3 -51 -8 -65
-11 -30 -5 -84 -14 -125 -19 -16 -2 -30 -4 -30 -5 0 -1 -13 -4 -30 -5 -59 -7
-121 -15 -165 -21 -25 -4 -65 -8 -90 -10 -25 -2 -67 -6 -95 -9 -294 -31 -806
-36 -1110 -11 -22 2 -80 7 -130 12 -49 4 -105 8 -122 8 -18 1 -33 4 -33 7 0 3
-15 6 -32 6 -18 1 -46 4 -63 7 -16 2 -48 8 -70 11 -22 4 -49 8 -60 10 -11 2
-36 6 -55 10 -19 3 -57 11 -85 17 -27 7 -53 11 -57 10 -5 -1 -8 3 -8 9 0 5 -5
7 -10 4 -6 -4 -57 5 -113 20 -56 15 -106 28 -112 30 -5 1 -17 4 -25 7 -8 3
-49 15 -90 27 -41 13 -83 27 -92 32 -10 5 -25 9 -33 9 -8 0 -23 4 -33 10 -9 5
-57 25 -105 45 -162 65 -417 204 -508 276 -22 17 -39 28 -39 25 0 -3 -10 3
-22 13 -13 11 -46 37 -74 58 -116 86 -307 266 -417 393 -57 65 -197 249 -197
258 0 5 -9 17 -20 27 -11 10 -20 23 -20 30 0 6 -8 20 -17 31 -17 19 -24 31
-56 86 -6 13 -14 25 -17 28 -7 7 -25 40 -75 138 -25 48 -50 92 -55 99 -6 7
-10 16 -10 21 0 4 -12 33 -26 62 -24 50 -45 98 -49 110 -1 3 -9 22 -18 43 -9
21 -30 80 -47 130 -37 108 -37 110 -39 120 0 4 -8 21 -16 37 -9 17 -13 30 -10
30 4 0 3 6 -2 13 -4 6 -8 14 -8 17 -1 7 -36 121 -46 150 -5 14 -10 34 -12 45
-2 11 -7 27 -10 35 -4 8 -9 26 -11 40 -3 14 -10 42 -15 63 -5 20 -7 37 -4 37
3 0 0 7 -7 15 -7 9 -10 18 -7 22 4 3 2 13 -3 22 -4 9 -11 37 -15 61 -4 25 -10
47 -13 50 -4 3 -7 16 -6 30 0 14 -6 48 -12 75 -11 42 -38 205 -49 295 -22 170
-24 189 -30 280 -2 41 -5 75 -6 75 -10 0 -15 614 -6 735 3 36 6 65 7 65 0 0 3
34 5 75 3 41 7 93 10 115 2 22 7 65 11 95 3 30 11 58 16 61 6 4 6 9 1 12 -10
6 8 122 47 302 12 55 23 109 25 120 2 11 8 32 14 48 6 15 8 27 6 27 -2 0 0 12
6 28 6 15 13 36 15 47 8 33 10 38 29 100 10 33 19 62 20 65 0 3 9 30 20 60 10
30 20 60 21 65 3 15 81 211 112 280 44 100 164 330 173 333 5 2 9 10 9 18 0 8
4 20 10 27 5 7 44 64 86 127 42 63 80 117 85 118 5 2 9 8 9 14 0 9 43 63 130
163 62 71 273 280 340 336 35 30 70 59 76 64 6 6 47 37 90 70 43 33 81 63 82
68 2 4 10 7 18 7 8 0 14 5 14 10 0 6 4 10 8 10 5 0 46 25 93 56 46 30 102 65
124 76 22 11 42 24 45 28 15 20 467 232 498 233 6 0 12 5 12 10 0 6 3 8 6 4 4
-3 18 0 33 7 39 20 351 126 351 119 0 -3 6 0 14 6 8 6 18 11 22 10 5 -1 16 0
24 4 17 6 213 57 244 63 12 2 55 10 96 19 138 27 235 44 285 50 28 3 59 7 70
9 11 2 54 7 95 11 41 4 89 9 105 11 17 2 86 6 154 9 69 3 126 7 128 9 5 5 62
-2 74 -9z"/>
<path d="M7410 7139 c-70 -15 -82 -18 -128 -41 -83 -41 -158 -131 -178 -214
-16 -66 -11 -188 9 -249 11 -33 26 -66 34 -73 7 -7 13 -16 13 -20 1 -27 116
-118 158 -127 12 -2 27 -7 32 -10 18 -11 55 -17 135 -19 147 -5 274 40 361
129 30 30 54 61 54 70 0 8 4 15 8 15 13 0 41 109 43 165 8 227 -162 381 -421
382 -47 0 -101 -3 -120 -8z"/>
<path d="M4088 6935 c-1 -2 -16 -5 -33 -8 -98 -18 -203 -72 -263 -137 -37 -40
-84 -125 -75 -134 4 -3 1 -6 -6 -6 -7 0 -11 -6 -8 -14 3 -8 3 -17 -1 -20 -24
-25 -18 -155 13 -256 20 -66 68 -129 145 -193 32 -27 119 -64 185 -79 63 -15
199 -16 275 -3 44 7 170 62 200 87 30 25 90 105 83 111 -3 4 -2 7 4 7 6 0 14
15 18 33 4 17 10 41 13 52 13 52 3 212 -17 260 -84 199 -221 293 -438 301 -50
1 -93 1 -95 -1z"/>
<path d="M7098 4836 c-3 -3 -131 -12 -278 -20 -66 -4 -209 -16 -265 -22 -22
-2 -69 -6 -105 -9 -36 -3 -78 -7 -95 -9 -16 -2 -66 -6 -110 -10 -44 -4 -91 -9
-105 -11 -14 -3 -52 -7 -85 -10 -33 -4 -71 -8 -85 -10 -14 -1 -52 -6 -85 -9
-33 -4 -73 -9 -90 -11 -67 -10 -152 -21 -220 -29 -16 -2 -48 -6 -70 -10 -22
-4 -53 -8 -70 -11 -35 -4 -87 -12 -165 -25 -30 -5 -71 -11 -90 -14 -19 -3 -44
-7 -55 -10 -20 -4 -69 -11 -139 -22 -21 -3 -48 -8 -60 -10 -11 -3 -34 -7 -51
-10 -16 -3 -41 -7 -55 -10 -14 -3 -38 -7 -55 -10 -16 -3 -41 -7 -55 -10 -14
-3 -38 -7 -55 -10 -63 -11 -70 -12 -85 -18 -8 -3 -33 -8 -55 -11 -22 -3 -56
-10 -75 -15 -19 -5 -51 -12 -70 -15 -19 -3 -43 -8 -52 -11 -9 -3 -27 -7 -40
-9 -13 -3 -36 -8 -53 -12 -16 -4 -32 -7 -35 -8 -3 -1 -18 -4 -35 -8 -16 -4
-39 -9 -50 -12 -11 -2 -38 -9 -60 -15 -22 -6 -49 -12 -60 -14 -11 -3 -35 -9
-52 -14 -18 -6 -33 -8 -33 -5 0 3 -6 1 -12 -4 -7 -6 -21 -9 -30 -8 -10 2 -18
0 -18 -4 0 -4 -6 -8 -12 -8 -12 -1 -39 -6 -83 -17 -34 -8 -295 -83 -390 -111
-49 -15 -94 -28 -100 -29 -5 -2 -17 -6 -25 -9 -8 -3 -42 -13 -75 -23 -33 -10
-62 -18 -65 -19 -3 -1 -20 -6 -37 -10 -18 -4 -33 -10 -33 -14 0 -4 -8 -7 -17
-7 -32 -2 -257 -74 -298 -96 -94 -50 -155 -148 -157 -253 -1 -61 20 -155 34
-155 4 0 8 -4 8 -10 0 -34 110 -117 179 -134 77 -20 113 -15 281 39 124 39
148 46 168 47 6 1 12 5 12 9 0 3 12 9 28 12 44 8 71 15 82 22 5 3 20 8 32 10
13 3 60 16 105 30 45 15 92 28 103 30 11 2 24 6 28 9 5 3 19 7 33 10 13 3 80
21 149 41 69 19 134 37 145 39 11 3 20 5 20 6 0 2 40 12 100 24 11 2 45 11 75
20 30 8 66 17 80 20 14 2 75 16 135 31 61 15 121 29 135 31 14 2 36 7 50 10
14 3 34 8 45 10 56 11 68 14 83 18 9 3 33 7 52 10 19 3 73 13 120 22 47 8 92
17 100 18 8 1 38 6 65 10 28 4 57 10 65 13 8 3 29 7 45 9 17 1 44 5 60 8 17 4
46 9 65 12 19 2 58 9 85 14 28 5 68 11 90 14 22 3 72 10 110 16 39 6 88 13
110 16 22 3 56 7 75 10 19 3 51 7 70 9 19 2 46 6 59 9 13 3 49 8 80 11 96 9
133 15 144 22 6 3 7 1 3 -5 -5 -8 1 -9 21 -2 26 8 66 13 198 26 214 21 294 28
565 49 330 26 977 27 1200 1 19 -2 69 -7 110 -11 41 -3 93 -8 115 -10 22 -3
60 -7 85 -9 25 -3 63 -7 85 -10 121 -16 145 -18 195 -18 70 0 85 3 141 30 59
29 105 74 137 137 21 42 26 63 26 130 -1 66 -5 89 -27 131 -42 83 -128 149
-212 161 -16 2 -41 6 -55 9 -14 3 -45 7 -70 9 -25 2 -64 7 -87 10 -72 9 -115
13 -188 20 -38 3 -86 8 -105 10 -19 3 -73 8 -120 11 -47 3 -110 8 -140 10 -60
6 -826 14 -832 10z"/>
</g>
</svg>
