<svg xmlns="http://www.w3.org/2000/svg" xml:space="preserve" width="512" height="512">
  <path d="M262.7 71.8c.4.2 1.3 1.2 2.4 1 1.2-.3 3-1.7 5.4-3.6 2.3-2 5-4.5 8.2-6.8a47 47 0 0 1 18.5-8.2c3.8-.8 8.2-1.4 13-1.7a138.1 138.1 0 0 1 41.7 3.9 55 55 0 0 1 17.9 8.1A38.5 38.5 0 0 1 383.3 82c1.2 3.1 2 5.6 3.1 6.5.9.6 2.3.6 2.7.7.4-.2 1.8-.7 2.3-1.5.8-1.2 1-4.2-.1-8.3-.8-3-2.4-6.5-5.3-10.4a46.3 46.3 0 0 0-11.8-11 70.4 70.4 0 0 0-20.8-8.8 145.3 145.3 0 0 0-43.8-3.5 91.9 91.9 0 0 0-20.4 4 78.9 78.9 0 0 0-14.4 7.1c-7.2 4.8-12.5 10.4-13 12.6-.2 1.1.8 2 1 2.4z"/>
  <path d="M294 76.5c.3-2 2.6-4.2 4.9-4.2 2.2 0 4.5 2.4 4.2 4.3-.3 2-3.2 3.7-5.5 3.7s-4-1.8-3.6-3.8zM333.4 76.8c-.3-1.7 1.8-3.8 3.9-3.8 2.1 0 4.2 2 4.5 3.8.3 1.7-1.3 3.3-3.4 3.3-2.1 0-4.7-1.5-5-3.3z"/>
  <path fill="none" stroke="#000" stroke-linecap="round" stroke-width="5" d="M302.4 92.1c4.1.8 8.2 1.5 12.6 1.7 4.4.3 9.2 0 13.9-.2"/>
  <path d="M87.7 275.7c.4-.3 1.9-.6 2.4-1.8 1.2-3.2-1.3-13.4-3.6-28a170.7 170.7 0 0 1 4.3-74l.2-.7a132.6 132.6 0 0 1 21-41.8c9.6-12.6 22.6-24 37.2-33.6a161.3 161.3 0 0 1 43.2-20 103.2 103.2 0 0 1 66.6 3.4 111 111 0 0 1 37 22.6c4.3 4 7.4 7.7 9.8 10.7 4.3 5.3 7 9 8.5 9 .5 0 1-.3 1.1-.3.2-.2.6-.5.8-.9.5-1.3-1.3-5.8-5.4-11.6a74.9 74.9 0 0 0-10.4-11.6 126.6 126.6 0 0 0-45.2-26 109.1 109.1 0 0 0-65-3.2c-14.7 3.7-30.9 10.7-46 20a155.4 155.4 0 0 0-40.2 35.4A136.3 136.3 0 0 0 81 169a191.6 191.6 0 0 0-7.3 43.2 157 157 0 0 0 2 35.6c2.5 14.9 6.7 25.6 9 27.5 1 .8 2.5.3 3 .4zM285.2 336.8c.3.1.8 1 1.7 1 1.8 0 6.7-3 12.1-7a94.3 94.3 0 0 0 26-29.3 55 55 0 0 0 7.2-16.6c0-.7-.8-1-1-1.2-.2 0-.8-.5-1.5-.2-1.9 1-6 7.3-10.8 14.2a153.5 153.5 0 0 1-10.6 13.8c-4.2 4.7-8.5 8.7-14 13.5-5 4.4-9 8-9.6 9.9-.3.8.4 1.6.5 1.9z"/>
  <path d="M172.5 145.9c2.5-3.2 7-4.3 9-2 2 2.2 1.5 7.9-1 11-2.5 3.2-7 3.9-9 1.6-2-2.2-1.5-7.5 1-10.6zM262.6 112.2c2-2.7 6.6-3.6 8.4-1.6 2 2 1.2 7-.9 9.6-2 2.7-5.6 3.3-7.5 1.2-1.9-2-2.1-6.5 0-9.2z"/>
  <path fill="none" stroke="#000" stroke-linecap="round" stroke-width="6" d="M196.5 202.2c5.7-4.5 11.3-9.1 20.5-14.8 9.1-5.8 21.9-12.6 32-17 10-4.3 17.4-6 24.8-8"/>
  <path d="M291.5 240.3c-2.3-4-6.6-11.6-9.4-20.8a67 67 0 0 1-.9-35.5 93.3 93.3 0 0 1 23.6-43 135.6 135.6 0 0 1 72-39.4c13.8-2.3 28.3-1.8 41.7 1.5a74.7 74.7 0 0 1 34.4 18.6c7.8 7.7 14 18.1 18.2 31.2 3.8 11.7 5.6 24.7 5.5 37.5a91 91 0 0 1-6 32.6c-3.7 9.6-9.4 18-17.4 25.4-8 7.4-18.3 13.6-29.5 18.4-11.6 5-23.9 8.5-35.5 10.6a140.3 140.3 0 0 1-34 2 86.1 86.1 0 0 1-28.1-6.2c-9.2-4-15.7-9.4-20.3-14-4-4-7-7.9-8.7-10.3-2.9-4-5-7.7-5.6-8.6zm-5.5 3.2c.6 1 2.8 4.8 5.8 9.2 1.8 2.5 5 6.8 9.2 11.2 4.9 5 12 11.2 22.2 15.8a92.7 92.7 0 0 0 30.4 7.3c10.8.9 22.9.4 36-1.8a170 170 0 0 0 37.3-10.7 114 114 0 0 0 32.2-19.7c9-8.1 15.6-17.7 20-28.4 4.4-11.1 6.5-23.2 6.7-35.9.2-13.7-1.7-27.7-5.8-40.5a84.8 84.8 0 0 0-21.4-35.7 82.6 82.6 0 0 0-38-19.8 110.2 110.2 0 0 0-45.2-1 142 142 0 0 0-75.4 43.2 101.9 101.9 0 0 0-24.3 46 75.7 75.7 0 0 0 .8 38.4c2.7 10 7.2 18.3 9.5 22.4z"/>
  <path d="M297 204.5c1.5-2.5 5.4-4 7.6-2.7 2.3 1.5 2.9 5.9 1.4 8.4a5.6 5.6 0 0 1-7.5 1.8c-2.2-1.4-3-4.9-1.5-7.5zM366.2 179c2.1-2.8 7-4.5 9.5-2.7 2.5 1.7 2.8 6.7.7 9.6-2 2.9-6.5 3.6-9 1.8-2.6-1.7-3.3-5.8-1.2-8.7z"/>
  <path fill="none" stroke="#000" stroke-linecap="round" stroke-width="6" d="M305.7 246c8.3-4.7 16.6-9.3 28-13.5 11.4-4.3 26-8.1 39.6-10.5 13.8-2.4 26.7-3.3 39.7-4.2"/>
  <path d="M50.4 399.4a143 143 0 0 1-2.5-30 102 102 0 0 1 5.7-30 122.4 122.4 0 0 1 48-62c13-8.8 28.8-16 45.6-20.2 17.2-4.2 35-5 51.5-1.4 18 3.9 34.2 12.6 46.9 23.6 15 13 24.4 28.4 29.2 43.3v.2c5.6 17.6 5.4 36.7 2.2 54.1a156.2 156.2 0 0 1-19 51.1c-9.2 15.4-20 26.6-32 34.6a92.2 92.2 0 0 1-43.4 15.4c-17.4 2-36.2.2-53-3.6a172.6 172.6 0 0 1-33.9-11.4c-4-1.9-8-4-11.6-6.4a71 71 0 0 1-24-26.4 110.6 110.6 0 0 1-9.7-31zM40.2 401c.8 5.2 3 20.3 10 34.2a77 77 0 0 0 27.6 31 104.2 104.2 0 0 0 22.9 11.1 176 176 0 0 0 83 9c7-1 13.9-2.5 20.6-4.8 9.3-3 17.9-7.3 25.9-12.8 12.8-8.9 24-21.1 33.5-37.3 8.6-14.7 16-33.2 19.6-53.4a121 121 0 0 0-2.6-57.3c-5-16-15-32.4-30.9-46.2a114 114 0 0 0-49.6-25.5c-17.7-4-36.5-3.3-54.7 1a152.2 152.2 0 0 0-48.3 20.7A134.4 134.4 0 0 0 45 336.4c-4.5 12.2-6.3 23-6.8 32.6-.8 12.8.8 24.6 2 32.1z"/>
  <path d="M149.6 314.2c-2-2.9-.9-8 2.4-11 3.3-2.9 8.7-3.5 10.7-.6 2 2.8.4 9.2-2.9 12.1-3.3 3-8.3 2.4-10.2-.5zM228.3 311.9c-1.8-2.7-.2-7.7 3-10.2 3-2.4 7.8-2.3 9.6.4 1.8 2.7.7 7.9-2.5 10.3-3.1 2.5-8.3 2.1-10-.5z"/>
  <path fill="none" stroke="#000" stroke-linecap="round" stroke-width="6" d="M111.6 367c14.3-3 28.6-6 44.5-7.4 15.9-1.4 33.4-1.2 47.7.3a253 253 0 0 1 36.7 7"/>
  <path fill="none" stroke="#000" stroke-linecap="round" stroke-width="5" d="M145 279.5a145 145 0 0 1 34 22.7M207.8 304.3c4.8-4 9.7-8 14.5-11.6 4.9-3.5 9.7-6.6 14.6-9.6"/>
</svg>
