<svg xmlns="http://www.w3.org/2000/svg" xml:space="preserve" width="925.7236" height="972.3279">
    <path d="M240.4969 849.7371c-1.0362-5.898-2.6217-15.7308-3.2944-27.5023-.4588-8.0288-.5467-17.4216.071-30.0188a465.004 465.004 0 0 1 .4308-7.5246c.5474-8.3817 1.4775-18.9955 3.0421-30.9587 1.654-12.647 4.1077-27.4796 7.7217-42.6525 6.205-26.0504 15.9763-53.5617 28.9067-77.8329 11.5199-21.6234 24.8487-39.3409 41.226-57.6071 15.6964-17.507 33.381-34.6407 50.5429-48.2635 8.5357-6.7755 16.7981-12.5665 25.5153-17.7298 8.8752-5.2569 18.2408-9.8745 28.7977-14.1706 10.9387-4.4513 23.0481-8.5124 35.3504-11.9694 10.1274-2.8458 20.283-5.2545 30.045-7.1692a351.9015 351.9015 0 0 1 8.004-1.4751c24.9597-4.2983 47.8788-5.359 71.2795-1.7105 23.568 3.6746 48.0913 12.204 70.6526 23.7002 22.5197 11.4749 42.82 25.7711 59.5455 42.1561 16.707 16.3668 29.9653 34.937 40.589 56.1492 10.65 21.2648 18.6074 45.096 23.0178 68.7198 2.2027 11.799 3.5134 23.5052 3.7453 35.4914a198.3705 198.3705 0 0 1-.106 11.3735c-.3177 8.3655-1.1638 16.9598-2.6133 25.9032-4.1956 25.8878-13.4416 54.6596-27.3476 84.3429-13.8433 29.5495-32.1987 59.7728-49.506 83.6812-8.6548 11.9558-17.01 22.2805-25.5872 31.5972-8.6122 9.3548-17.459 17.7049-27.0545 25.657-19.4504 16.1192-41.7766 30.435-68.3164 41.6531-27.1829 11.4898-58.633 19.675-87.817 24.2978-11.437 1.8116-22.5183 3.0764-33.1342 3.7787-16.6337 1.1005-32.9527.8587-48.0305-1.1824-11.6448-1.5764-22.4146-4.2081-32.5281-7.9771-9.9422-3.705-19.1813-8.4829-27.987-14.3748-17.9561-12.0147-33.8661-28.4933-46.6675-44.3518-14.3083-17.7253-23.9759-33.8262-31.3378-51.8236-4.3205-10.5622-7.732-21.5296-10.3033-31.1033-3.4174-12.724-5.5857-23.8393-6.8525-31.1033zm-14.665 2.7497c1.5048 7.5194 4.0816 19.0562 7.9915 32.1871 2.9384 9.8685 6.8373 21.3253 11.7496 32.42 8.459 19.1052 19.3127 35.859 34.7047 53.9066 13.6457 16.0003 30.7067 32.9157 50.0707 45.2553 9.548 6.0845 19.5373 10.9807 30.2266 14.7321 10.8654 3.8133 22.3084 6.3923 34.5222 7.8747 15.778 1.915 32.6516 1.9771 49.6584.7423 10.8695-.7892 22.1791-2.1421 33.818-4.0369 29.643-4.826 61.686-13.2201 89.5367-25.0015 27.2772-11.5388 50.25-26.215 70.2801-42.6827 9.8834-8.1256 19.0278-16.6682 27.9423-26.2392 8.8744-9.5277 17.4944-20.0457 26.3865-32.1586 17.7351-24.1589 36.585-54.7066 50.953-84.6806 14.4447-30.1337 24.331-59.6238 29.0834-86.4997 1.646-9.309 2.675-18.2966 3.1554-27.0826a218.611 218.611 0 0 0 .3267-11.954c-.0005-12.621-1.0923-24.9434-3.076-37.3338-3.9591-24.729-11.4995-49.8908-21.9407-72.667-10.455-22.8067-23.8578-43.3026-41.2664-61.6733-17.374-18.3342-38.6174-34.4257-62.3076-47.451-23.6308-12.9927-49.9528-23.0725-76.0051-27.7698-26.1985-4.7235-51.656-3.9236-78.4792.4597-2.8352.4634-5.6869.967-8.5468 1.5082-10.3898 1.9664-21.162 4.4814-31.8878 7.482-13.0073 3.6388-25.947 7.9935-37.7847 12.874-11.5 4.7412-21.8546 9.9357-31.7027 15.905-9.6737 5.8638-18.69 12.3718-27.7761 19.7875-18.122 14.7904-36.4107 33.095-52.3967 51.5754-16.845 19.4734-30.8156 38.8055-42.8001 62.3856-13.31 26.188-23.054 55.381-29.0744 82.7775-3.5113 15.9784-5.7927 31.455-7.2775 44.5516-1.4066 12.4071-2.18 23.387-2.607 32.075a439.562 439.562 0 0 0-.315 7.809c-.4106 13.1099-.099 23.0646.6134 31.761 1.0302 12.5773 3.0282 23.1453 4.2246 29.1611z" style="opacity:1;fill:#000;fill-opacity:1;fill-rule:nonzero;stroke:#000;stroke-width:8;stroke-linecap:round;stroke-dasharray:none;stroke-opacity:1" transform="translate(-67.0152 -72.1072)"/>
    <path d="M475.3204 706.0044c3.4882-.8527 6.9764-1.7054 14.4567-1.7829 7.4803-.0775 18.9522.6201 29.8819 1.7441s21.3164 2.6743 31.626 4.5734c10.3096 1.8991 20.5413 4.147 31.3935 6.7825 10.8522 2.6356 22.3241 5.6586 34.3003 9.1856 11.9761 3.527 24.4558 7.5576 36.0056 11.2008 11.5498 3.6432 22.169 6.8988 32.0135 9.9994s18.9136 6.0461 27.9828 8.9917" style="opacity:1;fill:none;fill-opacity:1;stroke:#000;stroke-width:11;stroke-linecap:round;stroke-dasharray:none;stroke-opacity:1" transform="translate(-66.8508 -72.2716)"/>
    <path d="M703.3495 649.6608c-.7946-.3391-.9302-.3973-1.9089-1.3371-.9786-.94-2.8002-2.7615-3.8854-5.3776-1.0852-2.6162-1.434-6.0268-.9495-8.798.4845-2.7711 1.8022-4.9027 3.4203-6.4627 1.6182-1.56 3.5366-2.5483 5.523-2.8874 1.9863-.3392 4.0404-.0291 5.7651.969 1.7247.998 3.12 2.6838 4.1568 4.7574 1.0367 2.0735 1.715 4.5346 1.9475 7.0538.2325 2.5193.0194 5.0966-.7752 7.4317-.7945 2.3352-2.1704 4.428-3.866 5.426-1.6957.998-3.711.9012-5.4454.5427-1.7344-.3586-3.1878-.9787-3.9823-1.3178zM561.5545 584.4793c-.781-1.9458-1.795-4.5493-1.9732-7.0433-.1781-2.4939.4796-4.8781 1.987-7.0295 1.5073-2.1514 3.8641-4.0697 6.9062-4.8508 3.042-.781 6.7691-.4248 9.4549.6852 2.6857 1.11 4.33 2.9735 5.0837 5.8648.7537 2.8913.6166 6.8103-.2604 10.2771-.877 3.4668-2.4939 6.4814-4.933 8.3313-2.4391 1.8499-5.7003 2.535-8.2354 2.0554-2.535-.4796-4.3437-2.124-5.5222-3.5902-1.1784-1.4662-1.7265-2.7542-2.5076-4.7z" style="opacity:1;fill:#000;fill-opacity:1;stroke:#000;stroke-width:0;stroke-linecap:round;stroke-dasharray:none;stroke-opacity:1" transform="translate(-67.0152 -72.1072)"/>
    <path d="M247.8922 623.9162c-.1085-.0808-.277-.213-.428-.3823-.127-.1424-.2368-.3031-.3393-.5093-.0891-.1792-.1572-.3598-.236-.566-.0694-.1816-.1417-.368-.2357-.5567-.1696-.3408-.4065-.6825-.81-1.0193-.3663-.3056-.8684-.6056-1.575-.8912-1.0691-.4321-2.5796-.8285-4.4291-1.1832a84.3023 84.3023 0 0 0-1.302-.238c-2.1245-.3729-4.8043-.7762-7.7729-1.3386-2.5486-.4828-5.335-1.093-8.333-2-2.7633-.8361-5.8264-1.959-9.2452-3.5707-6.3653-3.001-13.962-7.6826-20.6841-15.8458-3.3256-4.0385-6.5125-9.02-9.4032-14.585-2.909-5.6004-5.445-11.6502-7.4919-17.7013-4.304-12.7233-6.3912-25.341-7.3132-39.4112-.4345-6.6308-.5947-13.4001-.4765-20.413.175-10.3795.9215-21.2494 2.2143-32.756 2.4949-22.2042 7.0924-47.4089 14.3729-73.7995 7.0213-25.451 17.2971-54.6851 29.6136-83.2703 8.3479-19.3744 18.104-39.56 30.6708-60.1239a394.7692 394.7692 0 0 1 8.7505-13.6786c13.9836-20.9008 32.9048-44.9155 56.4835-67.1153 20.331-19.142 43.8063-36.525 67.572-49.7825 21.8359-12.1809 42.9675-20.3371 66.6064-25.7514 22.902-5.2456 47.8534-7.8564 70.9646-7.7583 11.4537.0485 22.3585.763 32.3883 1.9893 10.1093 1.236 19.263 2.9838 27.168 5.0669 8.0186 2.113 14.7217 4.5633 20.491 7.282 5.907 2.7837 10.8853 5.8731 15.2863 9.2034 9.3342 7.0635 16.4239 15.4875 21.449 22.3303 2.8023 3.8161 4.985 7.1753 6.7702 10.303 1.9662 3.4448 3.4685 6.6437 4.7012 9.7445 2.9596 7.4446 4.6518 15.1097 5.4448 18.7471.0799.3665.1535.7232.2215 1.0696.6582 3.3561.8268 6.0422 1.0257 7.9775.2598 2.5279.6096 4.2975 1.8921 5.487.8934.8284 2.8037 1.2864 3.3642 1.5447.5437-.2815 2.4405-.8288 3.287-1.7117 1.2023-1.254 1.5006-3.1577 1.437-5.9284-.0483-2.1035-.3327-5.1497-.727-8.8915a503.4483 503.4483 0 0 0-.128-1.202c-.4546-4.2267-1.7805-12.4306-4.9833-21.2085-1.3292-3.6431-2.993-7.403-5.19-11.409-1.991-3.6303-4.3934-7.4177-7.3995-11.5884-5.3431-7.4129-13.195-16.887-23.8196-24.9536-5.0541-3.8373-10.7543-7.3729-17.4442-10.5241-6.52-3.0713-13.9357-5.7573-22.5878-8.0272-8.5056-2.2314-18.21-4.0616-28.7976-5.3396-10.5126-1.269-21.8922-1.9929-33.8092-2.022-23.9905-.0585-49.8546 2.6962-73.6779 8.2097-24.755 5.729-46.9139 14.356-69.6646 27.1135-24.6243 13.808-48.8314 31.8157-69.784 51.6066-24.286 22.9391-43.8372 47.8486-58.0835 69.1555a411.8297 411.8297 0 0 0-9.0027 14.0735c-12.9416 21.164-22.9354 41.868-31.4163 61.5724-12.4983 29.0383-22.9281 58.773-30.0728 84.7816-7.4153 26.994-12.0877 52.7945-14.6178 75.5715-1.312 11.8116-2.073 23.0425-2.2444 33.8276-.1159 7.292.0198 14.3471.4165 21.2916.8412 14.7291 2.8103 28.4197 7.2595 42.4445 2.1004 6.6207 4.7443 13.2992 7.8463 19.564 3.0698 6.2 6.6069 12.0318 10.5278 16.9828 8.083 10.2067 17.3496 16.1126 24.972 19.7337 4.0825 1.9394 7.8236 3.2829 11.2672 4.2293 3.733 1.026 7.1348 1.5888 10.1445 1.9047 3.4694.3641 6.5545.4164 8.922.299a37.0743 37.0743 0 0 0 1.4693-.101c2.0854-.1868 3.7843-.5585 5.0178-1.0198.8162-.3053 1.4432-.6515 1.9375-1.016.5397-.3981.9358-.8298 1.2198-1.253.1584-.236.2844-.4733.3778-.7032.104-.256.1665-.4994.1922-.726a2.0233 2.0233 0 0 0-.0347-.6784c-.0502-.2236-.1415-.4388-.1851-.556z" style="opacity:1;fill:#000;fill-opacity:1;fill-rule:nonzero;stroke:#000;stroke-width:11;stroke-linecap:round;stroke-dasharray:none;stroke-opacity:1" transform="translate(-67.0152 -72.1072)"/>
    <path d="M338.817 449.043c3.4106-2.4805 6.8213-4.961 10.1932-7.0927 3.372-2.1316 6.705-3.9144 11.976-6.6275 5.2711-2.713 12.4799-6.3562 18.9524-9.1855 6.4725-2.8293 12.2085-4.8446 17.4408-7.3251 5.2323-2.4805 9.9606-5.426 14.8441-8.1003 4.8835-2.6743 9.9218-5.0772 16.5494-7.984 6.6276-2.9069 14.844-6.3175 21.4716-9.0305 6.6275-2.713 11.6659-4.7284 17.1695-7.3251 5.5036-2.5968 11.4721-5.7749 20.9678-10.6971 9.4957-4.9223 22.518-11.5884 35.5404-18.2547" style="opacity:1;fill:none;fill-opacity:1;stroke:#000;stroke-width:11;stroke-linecap:round;stroke-dasharray:none;stroke-opacity:1" transform="translate(-67.0152 -72.1072)"/>
    <path d="M547.5642 244.094c.3488 1.3565.6201 3.4494.0969 5.2128-.5232 1.7635-1.841 3.1975-3.6238 4.4959-1.7829 1.2984-4.0308 2.461-6.4725 2.558-2.4417.0968-5.0772-.872-6.86-2.558-1.7829-1.686-2.713-4.089-2.7324-6.3369-.0194-2.248.872-4.3408 2.3642-5.9105s3.585-2.616 5.7555-2.8099c2.1704-.1937 4.4183.4651 6.143 1.0659 1.7247.6007 2.9262 1.1433 3.74 1.7247.814.5813 1.2403 1.2014 1.5891 2.558zM320.6204 413.425c-.8333.4263-1.1434.465-2.2867.5425-1.1434.0775-3.12.1938-5.0385-.6395-1.9185-.8333-3.7788-2.616-4.864-4.7284-1.0852-2.1123-1.3953-4.554-1.2015-6.55.1938-1.996.8914-3.5463 1.7054-4.8059.8139-1.2596 1.744-2.2285 3.2362-2.4804 1.4922-.252 3.5463.2131 5.0385 1.1433 1.4921.9302 2.4223 2.3254 3.4106 3.527.9883 1.2014 2.0347 2.209 2.9262 3.3524.8914 1.1434 1.6278 2.4224 1.7053 3.8758.0775 1.4534-.5039 3.0812-1.4728 4.302-.969 1.2209-2.3254 2.0348-3.1587 2.4611z" style="opacity:1;fill:#000;fill-opacity:1;stroke:none;stroke-width:11;stroke-linecap:round;stroke-dasharray:none;stroke-opacity:1" transform="translate(-67.0152 -72.1072)"/>
    <path d="M526.8453 437.7223c.6509-.5564 2.9318-1.2916 3.907-3.3342 2.3093-4.8373.7801-16.3267 1.675-32.335.5639-10.0887 2.392-22.1236 6.6965-35.5679.3032-.9469.6192-1.9117.9487-2.894 3.7977-11.3197 9.5629-25.385 17.181-38.6464 6.3016-10.9697 13.299-20.4022 22.1818-31.2612 7.873-9.6247 16.437-19.4527 25.6642-29.7422 8.4432-9.4152 17.1592-18.9119 25.7013-27.0222 8.203-7.7884 16.3981-14.4516 26.2054-21.2453 9.6204-6.6643 20.7393-13.4202 32.5904-19.756 11.7815-6.2986 23.9242-11.9874 37.408-15.9756 13.6643-4.0416 28.7526-6.3494 43.1948-6.9755 14.8352-.6432 28.9163.4899 42.2557 2.8566 14.0515 2.493 27.1925 6.3439 40.7116 11.8266 6.7838 2.7513 13.4877 5.8438 20.0216 9.4623 7.3268 4.0577 14.6327 8.877 21.5755 14.7317 13.057 11.0106 24.9617 25.7826 36.0179 41.2957 10.842 15.2126 20.3965 30.4597 27.1797 45.795 6.773 15.3123 10.8473 30.862 14.0302 46.1687 3.2202 15.4862 5.4628 30.4074 6.6874 47.1165 1.2633 17.2372 1.4076 35.8631-.36 52.16-1.8256 16.8292-5.7275 31.428-10.3941 45.7728-5.024 15.4435-10.889 30.402-18.0202 45.5184-7.8803 16.7041-17.0077 32.9686-26.937 48.1957-4.414 6.769-8.9564 13.2887-13.4248 19.3647-6.907 9.392-13.97 18.1374-20.7092 25.7043-12.0582 13.539-22.9125 23.1102-33.2415 30.5457-11.9753 8.6207-24.2105 14.9744-33.8522 19.8468-7.3415 3.71-13.7687 6.8388-18.7501 9.4087-7.8608 4.0554-14.831 6.3568-16.0476 8.9963-.4463.9683.3049 2.295.3659 2.754.3112.3426.8398 1.7727 1.8677 2.0565 2.766.764 9.1045-3.04 17.244-6.5792 5.0677-2.2034 11.8113-5.3853 19.1358-9.1783 9.7775-5.0631 22.166-11.982 34.4426-21.3712 10.5664-8.0813 21.4911-18.2703 33.6282-32.268 6.7735-7.8117 13.8763-16.7513 20.8668-26.2792 4.5238-6.1658 9.133-12.7763 13.6228-19.6382 10.102-15.439 19.4308-31.8999 27.5454-48.82 7.3476-15.3208 13.4397-30.478 18.7034-46.126 4.8855-14.524 9.1149-29.5923 11.2016-47.0775 2.0112-16.8521 2.0425-35.9503.9555-53.5159-1.0583-17.1025-3.1573-32.4074-6.248-48.255-3.043-15.6037-7.0746-31.8914-14.0331-48.1066-6.959-16.2161-16.7484-32.1398-27.6314-47.713-11.0481-15.8094-23.3957-31.4984-37.3195-43.4423-7.471-6.4087-15.299-11.6573-23.0771-16.0463-6.935-3.9133-13.994-7.2417-21.0504-10.1863-14.0924-5.8805-27.9004-10.121-42.7111-12.948-14.0253-2.677-28.9177-4.0845-44.6748-3.6112-15.2723.4587-31.3628 2.6865-46.1476 6.8369-14.6603 4.1154-27.7181 10.033-39.9854 16.3628-12.3274 6.361-23.982 13.2055-34.1697 20.037-10.4602 7.0143-19.3159 13.9791-28.1673 22.1652-9.1064 8.4219-18.2499 18.188-26.8079 27.5696-9.3859 10.2892-18.2034 20.2806-26.2968 30.1117-9.1747 11.1447-16.7446 21.3205-23.5307 33.3064-8.135 14.3681-14.0688 29.4387-17.7887 41.5971a193.5514 193.5514 0 0 0-.927 3.1233c-4.1727 14.5071-6.6108 27.41-7.4326 38.6585-1.254 17.1614 1.0887 30.1708 3.8668 34.0096 1.3303 1.8382 3.7168 2.1387 4.4556 2.5626z" style="opacity:1;fill:#000;fill-opacity:1;fill-rule:nonzero;stroke:#000;stroke-width:11;stroke-linecap:round;stroke-dasharray:none;stroke-opacity:1" transform="translate(-67.0152 -72.1072)"/>
    <path d="M696.7026 384.8607c2.248-.465 4.4958-.9301 8.6042-.62 4.1083.31 10.0768 1.3952 17.8284 4.0695 7.7516 2.6743 17.2857 6.9375 27.169 12.0923 9.8832 5.1548 20.115 11.2008 30.7733 19.805 10.6584 8.6043 21.7428 19.7662 31.3547 29.5332 9.6119 9.767 17.7508 18.1383 25.89 26.355 8.139 8.2166 16.278 16.278 24.107 23.3707 7.829 7.0926 15.3478 13.2162 20.7351 18.0221 5.3874 4.806 8.643 8.294 10.4645 11.007 1.8216 2.7131 2.2092 4.651 2.5968 6.5888" style="opacity:1;fill:none;fill-opacity:1;stroke:#000;stroke-width:11;stroke-linecap:round;stroke-dasharray:none;stroke-opacity:1" transform="translate(-67.0152 -72.1072)"/>
    <path d="M819.5371 308.8612c.4385 1.8635.5482 4.604-.1096 7.1254-.6577 2.5214-2.0828 4.8234-4.2205 6.55-2.1376 1.7265-4.9877 2.8775-7.7557 3.0145s-5.4537-.7399-7.7558-2.5761c-2.3021-1.8362-4.2205-4.6315-5.0152-7.1529-.7948-2.5213-.466-4.7685.4659-6.4403.9318-1.6717 2.4665-2.768 3.9464-3.8641 1.4799-1.0963 2.905-2.1925 4.933-2.8228 2.028-.6304 4.659-.7948 7.0158-.3289 2.357.466 4.4397 1.5621 5.8648 2.6036 1.4251 1.0414 2.1925 2.028 2.631 3.8915zM915.8541 428.4318c.4522.8222 1.3566 2.4665 2.6447 3.9053 1.288 1.4388 2.9598 2.672 4.8234 3.275 1.8636.6029 3.919.5755 6.084-.2193 2.1651-.7948 4.4397-2.3569 6.18-4.0697 1.7403-1.7129 2.946-3.5764 3.5764-5.5222.6303-1.9459.6852-3.9738.2192-5.9334-.4659-1.9595-1.4524-3.8504-3.0831-5.3852-1.6307-1.5347-3.9053-2.7131-6.1663-3.0283-2.261-.3151-4.5082.233-6.7417 1.2333-2.2336 1.0003-4.4534 2.4528-6.0018 3.9327-1.5485 1.48-2.4254 2.9872-2.8776 4.3438-.4522 1.3566-.4796 2.5624-.2604 3.645.2193 1.0825.6852 2.0417.9181 2.5213.233.4795.233.4795.6851 1.3017z" style="opacity:1;fill:#000;fill-opacity:1;stroke:none;stroke-width:11;stroke-linecap:round;stroke-dasharray:none;stroke-opacity:1" transform="translate(-67.0152 -72.1072)"/>
    <g transform="translate(-67.0152 -72.1072)">
        <ellipse cx="148.8865" cy="241.846" rx="5.1741" ry="4.9997" style="opacity:1;fill:#000;fill-opacity:1;stroke:none;stroke-width:11;stroke-linecap:round;stroke-dasharray:none;stroke-opacity:1"/>
        <path d="M72.5152 173.9708c1.3155-4.659 2.631-9.318 6.413-14.3058 3.782-4.9879 10.0304-10.3045 15.4841-12.4695 5.4538-2.165 10.1127-1.1785 13.374 1.8636 3.2612 3.0421 5.1248 8.1394 5.81 13.8399.685 5.7004.1918 12.0036-.0275 16.9092-.2192 4.9056-.1644 8.4135.3015 11.0992.4659 2.6858 1.3429 4.5494 3.8094 8.0573 2.4665 3.508 6.5225 8.6602 10.5785 13.8124" style="opacity:1;fill:none;fill-opacity:1;stroke:#000;stroke-width:11;stroke-linecap:round;stroke-dasharray:none;stroke-opacity:1"/>
        <ellipse cx="965.1749" cy="183.2449" rx="4.7672" ry="4.6509" style="opacity:1;fill:#000;fill-opacity:1;stroke:none;stroke-width:11;stroke-linecap:round;stroke-dasharray:none;stroke-opacity:1"/>
        <path d="M932.735 105.8076c.31-1.4727.6201-2.9455 2.4805-4.8447 1.8604-1.8991 5.271-4.2245 10.3483-5.9298 5.0772-1.7054 11.8209-2.7905 17.247-2.9843 5.426-.1938 9.5342.5038 12.7511 2.3642 3.2169 1.8604 5.5423 4.8834 6.3562 8.7204.8139 3.837.1163 8.4878-1.8216 12.79-1.938 4.302-5.116 8.2552-8.139 12.2473-3.0232 3.992-5.8912 8.0227-7.6352 11.3946-1.7441 3.372-2.3642 6.085-2.4417 8.4879-.0775 2.403.3875 4.4958.8526 6.5887" style="opacity:1;fill:none;fill-opacity:1;stroke:#000;stroke-width:11;stroke-linecap:round;stroke-dasharray:none;stroke-opacity:1"/>
        <ellipse cx="763.77" cy="934.7624" rx="5.0152" ry="5.0974" style="opacity:1;fill:#000;fill-opacity:1;stroke:none;stroke-width:11;stroke-linecap:round;stroke-dasharray:none;stroke-opacity:1"/>
        <path d="M766.6984 845.2984c-.31-1.4728-.6201-2.9456.2713-4.2634.8915-1.3177 2.9843-2.4804 6.5113-3.178 3.527-.6977 8.4878-.9302 13.1387.0774 4.651 1.0078 8.9917 3.2556 11.8598 6.24 2.868 2.9844 4.2633 6.705 4.302 10.697.0387 3.992-1.279 8.2553-4.4571 11.8598-3.1782 3.6044-8.2166 6.55-12.79 9.1855-4.5734 2.6355-8.6816 4.9609-11.4721 6.9375-2.7906 1.9767-4.2633 3.6044-6.3562 6.6663-2.093 3.062-4.806 7.5577-7.519 12.0535" style="opacity:1;fill:none;fill-opacity:1;stroke:#000;stroke-width:11;stroke-linecap:round;stroke-dasharray:none;stroke-opacity:1" transform="translate(14.8828 8.8367)"/>
    </g>
</svg>